<svg xmlns="http://www.w3.org/2000/svg" version="1.1" xmlns:xlink="http://www.w3.org/1999/xlink" xmlns:svgjs="http://svgjs.dev/svgjs" width="1500" height="1500" viewBox="0 0 1500 1500"><rect width="1500" height="1500" fill="#000000"></rect><g transform="matrix(0.6666666666666666,0,0,0.6666666666666666,249.39393939393938,605.2296813988374)"><svg viewBox="0 0 396 115" data-background-color="#ebebeb" preserveAspectRatio="xMidYMid meet" height="435" width="1500" xmlns="http://www.w3.org/2000/svg" xmlns:xlink="http://www.w3.org/1999/xlink"><g id="tight-bounds" transform="matrix(1,0,0,1,0.2400000000000091,-0.09108055471142507)"><svg viewBox="0 0 395.52 115.18216110942285" height="115.18216110942285" width="395.52"><g><svg viewBox="0 0 561.4371941317262 163.50007419928906" height="115.18216110942285" width="395.52"><g transform="matrix(1,0,0,1,163.93959413172618,50.523896114295205)"><svg viewBox="0 0 397.4976 62.45228197069865" height="62.45228197069865" width="397.4976"><g id="textblocktransform"><svg viewBox="0 0 397.4976 62.45228197069865" height="62.45228197069865" width="397.4976" id="textblock"><g><rect width="397.4976" height="3.1522292295780994" x="0" y="38.667818527503044" fill="#ffffff" opacity="1" stroke-width="0" stroke="transparent" fill-opacity="1" class="rect-qz-0" data-fill-palette-color="primary" rx="1%" id="qz-0" data-palette-color="#2a5276"></rect></g><g transform="matrix(1,0,0,1,0.9887999999999693,0)"><svg viewBox="0 0 395.52000000000004 34.95445948742413" height="34.95445948742413" width="395.52000000000004"><g transform="matrix(1,0,0,1,0,0)"><svg width="395.52000000000004" viewBox="0.6499999999999999 -40.8 608.7028391923991 53.8" height="34.95445948742413" data-palette-color="#2a5276"><g transform="matrix(1,0,0,1,0,0)"><g><svg width="25.77522612826603" viewBox="1.99 -36.86 104.63000000000001 37.37" height="9.207" data-palette-color="#2a5276" id="scriptelement" x="583.5776130641331" y="-9.207"><path d="M30.26-25.91L22.89-25.91Q22.67-28.05 21.06-29.24 19.44-30.43 16.67-30.43L16.67-30.43Q14.79-30.43 13.49-29.91 12.2-29.39 11.51-28.46 10.83-27.54 10.83-26.37L10.83-26.37Q10.8-25.39 11.25-24.66 11.7-23.93 12.5-23.41 13.3-22.89 14.35-22.51 15.39-22.12 16.58-21.86L16.58-21.86 19.85-21.08Q22.23-20.54 24.22-19.66 26.21-18.77 27.66-17.47 29.12-16.18 29.93-14.42 30.74-12.66 30.75-10.39L30.75-10.39Q30.74-7.05 29.06-4.61 27.38-2.17 24.23-0.83 21.08 0.51 16.64 0.51L16.64 0.51Q12.23 0.51 8.98-0.83 5.72-2.18 3.9-4.84 2.08-7.49 1.99-11.42L1.99-11.42 9.43-11.42Q9.55-9.59 10.48-8.37 11.42-7.16 12.99-6.54 14.56-5.93 16.55-5.93L16.55-5.93Q18.5-5.93 19.95-6.5 21.4-7.07 22.19-8.08 22.99-9.09 22.99-10.4L22.99-10.4Q22.99-11.63 22.27-12.46 21.56-13.3 20.18-13.88 18.8-14.47 16.81-14.95L16.81-14.95 12.86-15.94Q8.26-17.06 5.59-19.44 2.93-21.82 2.95-25.85L2.95-25.85Q2.93-29.15 4.71-31.62 6.5-34.09 9.62-35.48 12.75-36.86 16.73-36.86L16.73-36.86Q20.77-36.86 23.8-35.48 26.83-34.09 28.52-31.62 30.2-29.15 30.26-25.91L30.26-25.91ZM43.59 0L35.9 0 35.9-36.36 43.59-36.36 43.59-21.36 59.19-21.36 59.19-36.36 66.87-36.36 66.87 0 59.19 0 59.19-15.02 43.59-15.02 43.59 0ZM106.62-18.18L106.62-18.18Q106.62-12.23 104.37-8.06 102.13-3.89 98.26-1.7 94.4 0.5 89.59 0.5L89.59 0.5Q84.74 0.5 80.89-1.7 77.04-3.91 74.8-8.08 72.56-12.25 72.56-18.18L72.56-18.18Q72.56-24.13 74.8-28.3 77.04-32.48 80.89-34.67 84.74-36.86 89.59-36.86L89.59-36.86Q94.4-36.86 98.26-34.67 102.13-32.48 104.37-28.3 106.62-24.13 106.62-18.18ZM98.82-18.18L98.82-18.18Q98.82-22.03 97.68-24.68 96.53-27.33 94.46-28.69 92.38-30.06 89.59-30.06L89.59-30.06Q86.8-30.06 84.73-28.69 82.65-27.33 81.5-24.68 80.36-22.03 80.36-18.18L80.36-18.18Q80.36-14.33 81.5-11.68 82.65-9.04 84.73-7.67 86.8-6.3 89.59-6.3L89.59-6.3Q92.38-6.3 94.46-7.67 96.53-9.04 97.68-11.68 98.82-14.33 98.82-18.18Z" opacity="1" transform="matrix(1,0,0,1,0,0)" fill="#ffffff" class="undefined-123" data-fill-palette-color="primary" id="yy-123"></path></svg></g></g><path d="M29.55-24.85L25.8-24.3 17.45-13.95 26.15-2.65 30.35-1.85Q30.55-1.05 30.35 0.15L30.35 0.15Q27.2 0 23.7 0L23.7 0Q21.2 0 17 0.1L17 0.1Q16.7-0.9 17-1.85L17-1.85 20.65-2.4 14.35-10.65 7.75-2.25 11.15-1.85Q11.35-1.05 11.15 0.15L11.15 0.15Q8 0 6 0L6 0Q5 0 0.8 0.1L0.8 0.1Q0.5-0.9 0.8-1.85L0.8-1.85 4.55-2.4 12.8-12.65 3.95-24.25 0.9-24.95Q0.7-25.75 0.9-26.9L0.9-26.9Q3.65-26.7 7-26.7L7-26.7Q9.9-26.7 13.15-26.85L13.15-26.85Q13.45-25.95 13.15-24.95L13.15-24.95 9.55-24.3 16.05-15.8 22.85-24.45 19.45-24.85Q19.25-25.65 19.45-26.85L19.45-26.85Q22.2-26.65 24.45-26.65L24.45-26.65Q26.3-26.65 29.55-26.8L29.55-26.8Q29.85-25.8 29.55-24.85L29.55-24.85ZM41.2 7.4L41.2 7.4 44.4-0.15 34.7-24.05 30.8-24.85Q30.55-25.85 30.8-26.85L30.8-26.85Q33.55-26.65 37.5-26.65L37.5-26.65Q41.05-26.65 44.25-26.8L44.25-26.8Q44.55-25.8 44.25-24.85L44.25-24.85 39.95-24.15 44.7-12.9Q45.7-10.45 46.8-6.05L46.8-6.05 46.9-6.05Q47.75-9.05 49.25-12.65L49.25-12.65 53.6-24.3 49.7-24.85Q49.5-25.65 49.7-26.85L49.7-26.85Q52.45-26.65 55.05-26.65L55.05-26.65Q57.25-26.65 60.5-26.8L60.5-26.8Q60.8-25.8 60.5-24.85L60.5-24.85 56.55-24.3 43.35 8Q42.3 10.5 41 11.75 39.7 13 37.55 13L37.55 13Q35.85 13 34.92 12.58 34 12.15 33.05 10.95L33.05 10.95Q33.35 8.2 35.9 6.55L35.9 6.55Q37.95 8.85 39.4 8.85L39.4 8.85Q40.65 8.85 41.2 7.4ZM62.7-1.7L62.7-1.7 77.15-24.4 66.9-24.4 64.84-17.95Q64.09-17.75 63-17.95L63-17.95 63.15-26.7 82.75-26.7Q82.95-25.65 82.75-24.85L82.75-24.85 68.84-2.5 78.9-2.5 80.84-8.75Q81.59-8.95 82.7-8.75L82.7-8.75 82.55 0 62.7 0Q62.45-0.75 62.7-1.7ZM107.89-18.6L107.89-18.6 107.89-2.55 111.94-1.8Q111.99-1.55 112.02-1.35 112.04-1.15 112.04-0.9L112.04-0.9Q112.04-0.65 112.02-0.38 111.99-0.1 111.94 0.2L111.94 0.2Q108.79 0.05 105.49 0.05L105.49 0.05Q104.34 0.05 102.72 0.08 101.09 0.1 98.99 0.15L98.99 0.15Q98.84-0.3 98.84-0.8L98.84-0.8Q98.84-1.25 98.99-1.8L98.99-1.8 102.94-2.35Q103.04-3.75 103.09-5.33 103.14-6.9 103.14-8.7L103.14-8.7 103.14-19.35Q103.14-22.65 102.99-24.25L102.99-24.25 99.04-24.75Q98.94-25 98.94-25.6L98.94-25.6Q98.94-25.85 98.94-26.1 98.94-26.35 99.04-26.65L99.04-26.65Q102.44-26.85 107.64-27.7L107.64-27.7Q108.09-27.2 108.14-26.7L108.14-26.7Q107.89-25.3 107.89-18.6ZM100.59-36.45L100.59-36.45Q100.49-36.7 100.49-36.98 100.49-37.25 100.49-37.5L100.49-37.5Q100.49-38.85 101.62-39.68 102.74-40.5 104.39-40.5L104.39-40.5Q105.94-40.5 106.92-39.58 107.89-38.65 107.89-37.05L107.89-37.05Q107.89-35.75 106.77-34.95 105.64-34.15 103.89-34.15L103.89-34.15Q102.69-34.15 101.77-34.75 100.84-35.35 100.59-36.45ZM135.29-8.7L135.29-17.85Q135.29-21.7 134.26-23.25 133.24-24.8 130.84-24.8L130.84-24.8Q127.14-24.8 123.39-19.25L123.39-19.25 123.39-2.55 127.44-1.8Q127.64-1 127.44 0.2L127.44 0.2Q124.29 0.05 120.99 0.05L120.99 0.05Q118.69 0.05 114.49 0.15L114.49 0.15Q114.19-0.8 114.49-1.8L114.49-1.8 118.44-2.35Q118.64-5.1 118.64-8.7L118.64-8.7 118.64-22.4Q118.64-23.4 118.49-24.25L118.49-24.25 114.54-24.75Q114.34-25.5 114.54-26.65L114.54-26.65Q117.99-26.9 123.14-27.7L123.14-27.7Q123.59-27.2 123.64-26.7L123.64-26.7Q123.39-25.4 123.39-22.25L123.39-22.25Q127.34-27.7 132.29-27.7L132.29-27.7Q140.04-27.7 140.04-20.35L140.04-20.35 140.04-2.55 144.09-1.8Q144.29-1 144.09 0.2L144.09 0.2Q140.94 0.05 137.64 0.05L137.64 0.05Q135.34 0.05 131.14 0.15L131.14 0.15Q130.84-0.8 131.14-1.8L131.14-1.8 135.09-2.35Q135.29-5.1 135.29-8.7L135.29-8.7ZM154.34-32.7L154.34-32.7 154.34-25.55 161.39-25.55Q161.49-24.95 161.49-24.65L161.49-24.65Q161.49-24.2 161.39-23.6L161.39-23.6 154.34-22.55 154.34-8.8Q154.34-5.1 155.01-3.58 155.69-2.05 157.14-2.05L157.14-2.05Q158.44-2.05 161.19-3.1L161.19-3.1Q161.69-2.65 161.89-1.4L161.89-1.4Q160.39-0.5 159.61-0.08 158.84 0.35 157.66 0.68 156.49 1 155.19 1L155.19 1Q152.69 1 151.11-0.93 149.53-2.85 149.53-6.8L149.53-6.8 149.53-23.15 146.03-23.6Q145.94-24.1 145.94-24.45L145.94-24.45Q145.94-24.85 146.03-25.55L146.03-25.55Q147.44-25.8 148.46-26.43 149.49-27.05 150.19-28.18 150.89-29.3 151.26-30.18 151.64-31.05 152.19-32.7L152.19-32.7Q152.64-32.85 153.28-32.85L153.28-32.85Q153.89-32.85 154.34-32.7ZM185.68-14.1L185.68-14.1 169.98-14.1Q169.53-1.35 177.63-1.35L177.63-1.35Q181.08-1.35 184.68-4.4L184.68-4.4Q185.43-3.95 185.83-2.85L185.83-2.85Q182.38 1 177.08 1L177.08 1Q164.88 1 164.88-13.35L164.88-13.35Q164.88-20.15 168.48-23.93 172.08-27.7 176.88-27.7L176.88-27.7Q182.13-27.7 184.43-24.05 186.73-20.4 186.73-14.55L186.73-14.55Q186.23-14.15 185.68-14.1ZM176.78-25.7L176.78-25.7Q174.18-25.7 172.36-23 170.53-20.3 170.13-16.1L170.13-16.1 176.33-16.1Q180.03-16.1 181.63-16.55L181.63-16.55Q181.63-20.65 180.38-23.18 179.13-25.7 176.78-25.7ZM199.53-26.7L199.53-26.7 199.43-21.55Q200.68-23.85 202.91-25.78 205.13-27.7 207.13-27.7L207.13-27.7Q208.68-27.7 209.88-27.35L209.88-27.35Q210.28-26.7 210.28-25.65L210.28-25.65Q210.28-24 209.58-22.35L209.58-22.35Q207.78-22.85 206.13-22.85L206.13-22.85Q202.03-22.85 199.38-18.85L199.38-18.85 199.28-10.1 199.28-2.55 204.83-1.8Q205.03-1 204.83 0.2L204.83 0.2Q201.68 0.05 197.63 0.05L197.63 0.05Q194.58 0.05 190.38 0.15L190.38 0.15Q190.08-0.8 190.38-1.8L190.38-1.8 194.33-2.35Q194.53-5.1 194.53-8.7L194.53-8.7 194.53-22.4Q194.53-23.4 194.38-24.25L194.38-24.25 190.43-24.75Q190.23-25.5 190.43-26.65L190.43-26.65Q193.88-26.9 199.03-27.7L199.03-27.7Q199.48-27.2 199.53-26.7ZM232.93-8.7L232.93-17.85Q232.93-21.7 231.9-23.25 230.88-24.8 228.48-24.8L228.48-24.8Q224.78-24.8 221.03-19.25L221.03-19.25 221.03-2.55 225.08-1.8Q225.28-1 225.08 0.2L225.08 0.2Q221.93 0.05 218.63 0.05L218.63 0.05Q216.33 0.05 212.13 0.15L212.13 0.15Q211.83-0.8 212.13-1.8L212.13-1.8 216.08-2.35Q216.28-5.1 216.28-8.7L216.28-8.7 216.28-22.4Q216.28-23.4 216.13-24.25L216.13-24.25 212.18-24.75Q211.98-25.5 212.18-26.65L212.18-26.65Q215.63-26.9 220.78-27.7L220.78-27.7Q221.23-27.2 221.28-26.7L221.28-26.7Q221.03-25.4 221.03-22.25L221.03-22.25Q224.98-27.7 229.93-27.7L229.93-27.7Q237.68-27.7 237.68-20.35L237.68-20.35 237.68-2.55 241.73-1.8Q241.93-1 241.73 0.2L241.73 0.2Q238.58 0.05 235.28 0.05L235.28 0.05Q232.98 0.05 228.78 0.15L228.78 0.15Q228.48-0.8 228.78-1.8L228.78-1.8 232.73-2.35Q232.93-5.1 232.93-8.7L232.93-8.7ZM249.23-6.65L249.23-6.65Q249.23-4.05 250.18-2.98 251.13-1.9 253.18-1.9L253.18-1.9Q254.68-1.9 256.5-2.83 258.33-3.75 259.88-5.5L259.88-5.5 259.88-13.3Q254.73-13 251.98-11.48 249.23-9.95 249.23-6.65ZM259.88-15.1L259.88-15.1 259.88-17.65Q259.88-21.9 258.9-23.83 257.93-25.75 255.68-25.75L255.68-25.75Q253.38-25.75 251.98-24.28 250.58-22.8 250.08-19.25L250.08-19.25Q248.48-18.9 247.73-18.9L247.73-18.9Q245.78-18.9 245.43-20.3L245.43-20.3Q245.43-23.7 248.38-25.7 251.33-27.7 255.73-27.7L255.73-27.7Q260.58-27.7 262.6-25.73 264.63-23.75 264.63-18.65L264.63-18.65 264.63-4.55Q264.63-3.3 264.78-2.4L264.78-2.4 268.73-1.9Q268.93-1.15 268.73 0L268.73 0Q265.18 0.15 261.18 0.7L261.18 0.7Q260.78 0.3 260.68-0.3L260.68-0.3 260.43-3.75Q256.28 1 251.18 1L251.18 1Q248.03 1 246.25-0.8 244.48-2.6 244.48-5.65L244.48-5.65Q244.48-10.25 248.65-12.6 252.83-14.95 259.88-15.1ZM278.67-32.7L278.67-32.7 278.67-25.55 285.72-25.55Q285.82-24.95 285.82-24.65L285.82-24.65Q285.82-24.2 285.72-23.6L285.72-23.6 278.67-22.55 278.67-8.8Q278.67-5.1 279.35-3.58 280.02-2.05 281.47-2.05L281.47-2.05Q282.77-2.05 285.52-3.1L285.52-3.1Q286.02-2.65 286.22-1.4L286.22-1.4Q284.72-0.5 283.95-0.08 283.17 0.35 282 0.68 280.82 1 279.52 1L279.52 1Q277.02 1 275.45-0.93 273.87-2.85 273.87-6.8L273.87-6.8 273.87-23.15 270.37-23.6Q270.27-24.1 270.27-24.45L270.27-24.45Q270.27-24.85 270.37-25.55L270.37-25.55Q271.77-25.8 272.8-26.43 273.82-27.05 274.52-28.18 275.22-29.3 275.6-30.18 275.97-31.05 276.52-32.7L276.52-32.7Q276.97-32.85 277.62-32.85L277.62-32.85Q278.22-32.85 278.67-32.7ZM297.37-18.6L297.37-18.6 297.37-2.55 301.42-1.8Q301.47-1.55 301.5-1.35 301.52-1.15 301.52-0.9L301.52-0.9Q301.52-0.65 301.5-0.38 301.47-0.1 301.42 0.2L301.42 0.2Q298.27 0.05 294.97 0.05L294.97 0.05Q293.82 0.05 292.2 0.08 290.57 0.1 288.47 0.15L288.47 0.15Q288.32-0.3 288.32-0.8L288.32-0.8Q288.32-1.25 288.47-1.8L288.47-1.8 292.42-2.35Q292.52-3.75 292.57-5.33 292.62-6.9 292.62-8.7L292.62-8.7 292.62-19.35Q292.62-22.65 292.47-24.25L292.47-24.25 288.52-24.75Q288.42-25 288.42-25.6L288.42-25.6Q288.42-25.85 288.42-26.1 288.42-26.35 288.52-26.65L288.52-26.65Q291.92-26.85 297.12-27.7L297.12-27.7Q297.57-27.2 297.62-26.7L297.62-26.7Q297.37-25.3 297.37-18.6ZM290.07-36.45L290.07-36.45Q289.97-36.7 289.97-36.98 289.97-37.25 289.97-37.5L289.97-37.5Q289.97-38.85 291.1-39.68 292.22-40.5 293.87-40.5L293.87-40.5Q295.42-40.5 296.4-39.58 297.37-38.65 297.37-37.05L297.37-37.05Q297.37-35.75 296.25-34.95 295.12-34.15 293.37-34.15L293.37-34.15Q292.17-34.15 291.25-34.75 290.32-35.35 290.07-36.45ZM304.62-13.3L304.62-13.3Q304.62-16.3 305.49-18.93 306.37-21.55 308.02-23.5 309.67-25.45 311.99-26.58 314.32-27.7 317.22-27.7L317.22-27.7Q320.07-27.7 322.42-26.58 324.77-25.45 326.44-23.5 328.12-21.55 329.02-18.93 329.92-16.3 329.92-13.3L329.92-13.3Q329.92-10.2 328.99-7.6 328.07-5 326.39-3.08 324.72-1.15 322.37-0.08 320.02 1 317.22 1L317.22 1Q314.27 1 311.94-0.05 309.62-1.1 307.99-3 306.37-4.9 305.49-7.53 304.62-10.15 304.62-13.3ZM311.92-22.5L311.92-22.5Q309.77-19.45 309.77-13.3L309.77-13.3Q309.77-10.25 310.34-7.95 310.92-5.65 311.92-4.13 312.92-2.6 314.27-1.85 315.62-1.1 317.22-1.1L317.22-1.1Q318.77-1.1 320.17-1.85 321.57-2.6 322.57-4.13 323.57-5.65 324.17-7.95 324.77-10.25 324.77-13.3L324.77-13.3Q324.77-16.35 324.17-18.68 323.57-21 322.54-22.53 321.52-24.05 320.14-24.83 318.77-25.6 317.22-25.6L317.22-25.6Q314.12-25.6 311.92-22.5ZM354.37-8.7L354.37-17.85Q354.37-21.7 353.34-23.25 352.32-24.8 349.92-24.8L349.92-24.8Q346.22-24.8 342.47-19.25L342.47-19.25 342.47-2.55 346.52-1.8Q346.72-1 346.52 0.2L346.52 0.2Q343.37 0.05 340.07 0.05L340.07 0.05Q337.77 0.05 333.57 0.15L333.57 0.15Q333.27-0.8 333.57-1.8L333.57-1.8 337.52-2.35Q337.72-5.1 337.72-8.7L337.72-8.7 337.72-22.4Q337.72-23.4 337.57-24.25L337.57-24.25 333.62-24.75Q333.42-25.5 333.62-26.65L333.62-26.65Q337.07-26.9 342.22-27.7L342.22-27.7Q342.67-27.2 342.72-26.7L342.72-26.7Q342.47-25.4 342.47-22.25L342.47-22.25Q346.42-27.7 351.37-27.7L351.37-27.7Q359.12-27.7 359.12-20.35L359.12-20.35 359.12-2.55 363.17-1.8Q363.37-1 363.17 0.2L363.17 0.2Q360.02 0.05 356.72 0.05L356.72 0.05Q354.42 0.05 350.22 0.15L350.22 0.15Q349.92-0.8 350.22-1.8L350.22-1.8 354.17-2.35Q354.37-5.1 354.37-8.7L354.37-8.7ZM370.66-6.65L370.66-6.65Q370.66-4.05 371.61-2.98 372.56-1.9 374.61-1.9L374.61-1.9Q376.11-1.9 377.94-2.83 379.76-3.75 381.31-5.5L381.31-5.5 381.31-13.3Q376.16-13 373.41-11.48 370.66-9.95 370.66-6.65ZM381.31-15.1L381.31-15.1 381.31-17.65Q381.31-21.9 380.34-23.83 379.36-25.75 377.11-25.75L377.11-25.75Q374.81-25.75 373.41-24.28 372.01-22.8 371.51-19.25L371.51-19.25Q369.91-18.9 369.16-18.9L369.16-18.9Q367.21-18.9 366.86-20.3L366.86-20.3Q366.86-23.7 369.81-25.7 372.76-27.7 377.16-27.7L377.16-27.7Q382.01-27.7 384.04-25.73 386.06-23.75 386.06-18.65L386.06-18.65 386.06-4.55Q386.06-3.3 386.21-2.4L386.21-2.4 390.16-1.9Q390.36-1.15 390.16 0L390.16 0Q386.61 0.15 382.61 0.7L382.61 0.7Q382.21 0.3 382.11-0.3L382.11-0.3 381.86-3.75Q377.71 1 372.61 1L372.61 1Q369.46 1 367.69-0.8 365.91-2.6 365.91-5.65L365.91-5.65Q365.91-10.25 370.09-12.6 374.26-14.95 381.31-15.1ZM400.46-31.7L400.46-31.7 400.46-2.55 404.51-1.8Q404.71-1 404.51 0.2L404.51 0.2Q401.36 0.05 398.06 0.05L398.06 0.05Q395.76 0.05 391.56 0.15L391.56 0.15Q391.26-0.8 391.56-1.8L391.56-1.8 395.51-2.35Q395.71-5.1 395.71-8.7L395.71-8.7 395.71-37.35 391.61-37.85Q391.41-38.6 391.61-39.75L391.61-39.75Q395.06-40 400.21-40.8L400.21-40.8Q400.66-40.3 400.71-39.8L400.71-39.8Q400.46-38.5 400.46-31.7ZM428.96-1.2L428.96-1.2Q431.66-1.2 432.96-2.45 434.26-3.7 434.26-5.35L434.26-5.35Q434.26-6.3 433.96-7.1 433.66-7.9 432.98-8.65 432.31-9.4 431.21-10.13 430.11-10.85 428.46-11.7L428.46-11.7Q426.41-12.75 424.93-13.7 423.46-14.65 422.51-15.7 421.56-16.75 421.08-17.95 420.61-19.15 420.61-20.65L420.61-20.65Q420.61-22.45 421.26-23.78 421.91-25.1 423.08-25.98 424.26-26.85 425.86-27.28 427.46-27.7 429.41-27.7L429.41-27.7Q433.31-27.7 437.01-25.8L437.01-25.8 437.01-19.4 434.66-19.4 433.56-24.8Q431.36-25.85 428.91-25.85L428.91-25.85Q424.81-25.85 424.81-22.5L424.81-22.5Q424.81-20.7 426.16-19.2 427.51-17.7 430.51-16.2L430.51-16.2Q432.56-15.15 434.11-14.2 435.66-13.25 436.68-12.2 437.71-11.15 438.23-9.93 438.76-8.7 438.76-7.15L438.76-7.15Q438.76-5.4 438.01-3.9 437.26-2.4 435.91-1.33 434.56-0.25 432.66 0.38 430.76 1 428.46 1L428.46 1Q424.01 1 420.11-0.9L420.11-0.9 420.11-7.3 422.46-7.3 423.56-2.35Q426.11-1.2 428.96-1.2ZM464.75-20.3L464.75-20.3Q463.7-19.2 459.8-19.25L459.8-19.25Q459-25.55 455.25-25.55L455.25-25.55Q452.3-25.55 450.25-22.15 448.2-18.75 448.2-13.2L448.2-13.2Q448.2-7.5 450-4.42 451.8-1.35 455.4-1.35L455.4-1.35Q459.2-1.35 462.85-4.45L462.85-4.45Q463.6-4 464-2.9L464-2.9Q460.35 1 454.85 1L454.85 1Q449.6 1 446.25-2.63 442.9-6.25 442.9-13.3L442.9-13.3Q442.9-20.05 446.63-23.88 450.35-27.7 455.15-27.7L455.15-27.7Q458.95-27.7 461.85-25.8 464.75-23.9 464.75-20.3ZM471.55-8.7L471.55-32.45Q471.55-35.75 471.4-37.35L471.4-37.35 467.45-37.85Q467.25-38.6 467.45-39.75L467.45-39.75Q470.8-40 476-40.8L476-40.8Q476.45-40.3 476.5-39.8L476.5-39.8Q476.25-38.5 476.25-31.7L476.25-31.7 476.25-22.25Q479.95-27.35 485.15-27.35L485.15-27.35Q488.25-27.35 490.45-25.8 492.65-24.25 492.65-20.5L492.65-20.5 492.65-2.55 496.7-1.8Q496.9-1 496.7 0.2L496.7 0.2Q493.55 0.05 490.3 0.05L490.3 0.05Q488 0.05 483.8 0.15L483.8 0.15Q483.5-0.8 483.8-1.8L483.8-1.8 487.75-2.35Q487.95-5.1 487.95-8.7L487.95-8.7 487.95-18Q487.95-21.5 487.08-23.05 486.2-24.6 483.9-24.6L483.9-24.6Q482-24.6 479.93-23.2 477.85-21.8 476.25-19.15L476.25-19.15 476.25-2.55 480.3-1.8Q480.5-1 480.3 0.2L480.3 0.2Q477.15 0.05 473.9 0.05L473.9 0.05Q471.6 0.05 467.4 0.15L467.4 0.15Q467.1-0.8 467.4-1.8L467.4-1.8 471.35-2.35Q471.55-5.1 471.55-8.7L471.55-8.7ZM499.65-13.3L499.65-13.3Q499.65-16.3 500.52-18.93 501.4-21.55 503.05-23.5 504.7-25.45 507.02-26.58 509.35-27.7 512.25-27.7L512.25-27.7Q515.1-27.7 517.45-26.58 519.8-25.45 521.47-23.5 523.15-21.55 524.05-18.93 524.95-16.3 524.95-13.3L524.95-13.3Q524.95-10.2 524.02-7.6 523.1-5 521.42-3.08 519.75-1.15 517.4-0.08 515.05 1 512.25 1L512.25 1Q509.3 1 506.97-0.05 504.65-1.1 503.02-3 501.4-4.9 500.52-7.53 499.65-10.15 499.65-13.3ZM506.95-22.5L506.95-22.5Q504.8-19.45 504.8-13.3L504.8-13.3Q504.8-10.25 505.37-7.95 505.95-5.65 506.95-4.13 507.95-2.6 509.3-1.85 510.65-1.1 512.25-1.1L512.25-1.1Q513.8-1.1 515.2-1.85 516.6-2.6 517.6-4.13 518.6-5.65 519.2-7.95 519.8-10.25 519.8-13.3L519.8-13.3Q519.8-16.35 519.2-18.68 518.6-21 517.57-22.53 516.55-24.05 515.17-24.83 513.8-25.6 512.25-25.6L512.25-25.6Q509.15-25.6 506.95-22.5ZM529.25-13.3L529.25-13.3Q529.25-16.3 530.12-18.93 531-21.55 532.64-23.5 534.3-25.45 536.62-26.58 538.95-27.7 541.85-27.7L541.85-27.7Q544.7-27.7 547.05-26.58 549.39-25.45 551.07-23.5 552.75-21.55 553.64-18.93 554.55-16.3 554.55-13.3L554.55-13.3Q554.55-10.2 553.62-7.6 552.7-5 551.02-3.08 549.35-1.15 547-0.08 544.64 1 541.85 1L541.85 1Q538.89 1 536.57-0.05 534.25-1.1 532.62-3 531-4.9 530.12-7.53 529.25-10.15 529.25-13.3ZM536.55-22.5L536.55-22.5Q534.39-19.45 534.39-13.3L534.39-13.3Q534.39-10.25 534.97-7.95 535.55-5.65 536.55-4.13 537.55-2.6 538.89-1.85 540.25-1.1 541.85-1.1L541.85-1.1Q543.39-1.1 544.8-1.85 546.2-2.6 547.2-4.13 548.2-5.65 548.8-7.95 549.39-10.25 549.39-13.3L549.39-13.3Q549.39-16.35 548.8-18.68 548.2-21 547.17-22.53 546.14-24.05 544.77-24.83 543.39-25.6 541.85-25.6L541.85-25.6Q538.75-25.6 536.55-22.5ZM566.54-31.7L566.54-31.7 566.54-2.55 570.59-1.8Q570.79-1 570.59 0.2L570.59 0.2Q567.44 0.05 564.14 0.05L564.14 0.05Q561.84 0.05 557.64 0.15L557.64 0.15Q557.34-0.8 557.64-1.8L557.64-1.8 561.59-2.35Q561.79-5.1 561.79-8.7L561.79-8.7 561.79-37.35 557.69-37.85Q557.49-38.6 557.69-39.75L557.69-39.75Q561.14-40 566.29-40.8L566.29-40.8Q566.74-40.3 566.79-39.8L566.79-39.8Q566.54-38.5 566.54-31.7Z" opacity="1" transform="matrix(1,0,0,1,0,0)" fill="#ffffff" class="wordmark-text-0" data-fill-palette-color="primary" id="text-0"></path></svg></g></svg></g><g transform="matrix(1,0,0,1,0,45.533406797160055)"><svg viewBox="0 0 232.209792 16.9188751735386" height="16.9188751735386" width="232.209792"><g transform="matrix(1,0,0,1,0,0)"><svg width="232.209792" viewBox="2.15 -34 655.98 47.8" height="16.9188751735386" data-palette-color="#2a5276"><path d="M5.2 0.5L5.2 0.5Q4.6 0.5 3.98 0.3 3.35 0.1 2.93-0.65 2.5-1.4 2.5-2.95L2.5-2.95Q2.5-3.95 2.7-5.58 2.9-7.2 3.25-9.8L3.25-9.8Q3.5-11.45 3.83-14.23 4.15-17 4.15-20.05L4.15-20.05Q4.15-21.4 4.05-22.93 3.95-24.45 3.65-25.7L3.65-25.7Q3.05-25.55 2.75-25.55L2.75-25.55Q2.45-25.55 2.3-25.73 2.15-25.9 2.15-26.4L2.15-26.4Q2.15-27.4 2.38-28.43 2.6-29.45 3.1-30.15L3.1-30.15Q3.6-30.85 4.28-31.15 4.95-31.45 5.7-31.55L5.7-31.55Q6.95-31.7 8.88-31.83 10.8-31.95 12.93-32.05 15.05-32.15 16.8-32.15L16.8-32.15Q19.15-32.15 20.28-32.1 21.4-32.05 22-31.95L22-31.95Q23.3-31.75 23.3-30.55L23.3-30.55Q23.3-29.7 22.98-29.03 22.65-28.35 22.2-27.8L22.2-27.8Q21.65-27 21.03-26.68 20.4-26.35 19.4-26.45L19.4-26.45Q18.55-26.55 17.07-26.63 15.6-26.7 13.7-26.7L13.7-26.7Q12.9-26.7 11.6-26.65 10.3-26.6 8.85-26.5L8.85-26.5Q8.8-24.8 8.55-22.63 8.3-20.45 8-18.2L8-18.2Q9.35-18.3 11.25-18.38 13.15-18.45 15.15-18.5 17.15-18.55 18.7-18.55L18.7-18.55Q19.6-18.55 20-18.32 20.4-18.1 20.4-17.35L20.4-17.35Q20.4-16.5 19.98-15.53 19.55-14.55 18.88-13.85 18.2-13.15 17.45-13.2L17.45-13.2Q16.2-13.3 13.93-13.35 11.65-13.4 9.15-13.4L9.15-13.4 7.55-13.4Q7.45-12.3 7.38-11.23 7.3-10.15 7.3-9.25L7.3-9.25Q7.3-7.5 7.65-6.18 8-4.85 9-3.9L9-3.9Q9.65-3.25 9.65-2.4L9.65-2.4Q9.65-1.3 8.4-0.4 7.15 0.5 5.2 0.5ZM30.55 0.65L30.55 0.65Q27.1 0.65 25.02-1.23 22.95-3.1 22.95-6.75L22.95-6.75Q22.95-8.45 23.42-10.05 23.9-11.65 24.7-13.05L24.7-13.05Q23.9-12.55 23.5-12.55L23.5-12.55Q22.9-12.55 22.67-13.23 22.45-13.9 22.45-14.55L22.45-14.55Q22.45-15.7 22.92-16.38 23.4-17.05 23.85-17.4L23.85-17.4Q24.9-18.3 27.15-19.38 29.4-20.45 32.55-20.45L32.55-20.45Q36.85-20.45 39.22-18.05 41.6-15.65 41.6-11.35L41.6-11.35Q41.6-8 40.2-5.28 38.8-2.55 36.32-0.95 33.85 0.65 30.55 0.65ZM32.1-4.45L32.1-4.45Q34.6-4.45 36.32-6.03 38.05-7.6 38.05-10.2L38.05-10.2Q38.05-12.9 36.3-14.05 34.55-15.2 32.25-15.2L32.25-15.2Q31.2-15.2 30.35-15 29.5-14.8 28.75-14.5L28.75-14.5Q28.05-13.5 27.5-12.25 26.95-11 26.95-9.5L26.95-9.5Q26.95-7 28.45-5.73 29.95-4.45 32.1-4.45ZM48.45 0.55L48.45 0.55Q47.65 0.55 47.17 0.28 46.7 0 46.84-0.65L46.84-0.65Q47.4-2.8 47.77-5.03 48.15-7.25 48.15-9.3L48.15-9.3Q48.15-11.95 47.82-13.18 47.5-14.4 46.95-14.88 46.4-15.35 45.59-15.6L45.59-15.6Q45.25-15.75 44.97-16 44.7-16.25 44.7-16.7L44.7-16.7Q44.7-17.4 45.25-18.25 45.8-19.1 46.8-19.73 47.8-20.35 49.09-20.35L49.09-20.35Q50.8-20.35 51.47-19.18 52.15-18 52.15-16.1L52.15-16.1Q53.05-18.1 54.37-19.28 55.7-20.45 57.7-20.45L57.7-20.45Q59.05-20.45 59.95-19.85 60.84-19.25 60.84-17.9L60.84-17.9Q60.84-16.55 59.97-15.38 59.09-14.2 58.2-14.2L58.2-14.2Q58.05-14.2 57.84-14.25 57.65-14.3 57.5-14.5L57.5-14.5Q56.84-15.3 55.9-15.3L55.9-15.3Q54.45-15.3 53.34-13.4 52.25-11.5 52.15-8.15L52.15-8.15Q52.2-6.9 52.22-5.6 52.25-4.3 52.25-3.7L52.25-3.7Q52.25-1.85 51.22-0.65 50.2 0.55 48.45 0.55ZM82.29 0.7L82.29 0.7Q80.89 0.7 79.92-0.13 78.94-0.95 78.79-3.2L78.79-3.2Q78.69-4.9 78.37-7 78.04-9.1 77.59-10.95 77.14-12.8 76.54-13.75L76.54-13.75Q76.19-14.3 75.77-14.58 75.34-14.85 74.49-14.95L74.49-14.95Q73.59-15 73.59-16.25L73.59-16.25Q73.59-18.3 74.69-19.28 75.79-20.25 77.19-20.25L77.19-20.25Q78.69-20.25 79.64-19.28 80.59-18.3 81.12-16.68 81.64-15.05 81.87-13.05 82.09-11.05 82.09-9L82.09-9Q82.09-8.25 82.07-7.53 82.04-6.8 82.04-6.1L82.04-6.1Q82.04-5.6 82.24-5.28 82.44-4.95 83.24-4.95L83.24-4.95Q84.34-4.95 85.84-5.53 87.34-6.1 88.47-7.45 89.59-8.8 89.59-11.05L89.59-11.05Q89.59-12.2 89.24-12.98 88.89-13.75 88.29-14.45L88.29-14.45Q88.09-14.7 87.94-14.95 87.79-15.2 87.79-15.55L87.79-15.55Q87.79-16.5 88.57-17.07 89.34-17.65 90.32-17.93 91.29-18.2 91.94-18.2L91.94-18.2Q92.59-18.2 92.97-17.88 93.34-17.55 93.54-16.6L93.54-16.6Q93.74-15.95 93.84-15.18 93.94-14.4 93.94-13.4L93.94-13.4Q93.94-11.85 93.82-10.9 93.69-9.95 93.54-9.2L93.54-9.2Q93.39-8.55 93.32-7.93 93.24-7.3 93.24-6.45L93.24-6.45Q93.24-5.55 93.59-5.25 93.94-4.95 94.69-4.95L94.69-4.95Q97.54-4.95 99.34-6.93 101.14-8.9 101.14-11.75L101.14-11.75Q101.14-12.75 100.84-13.63 100.54-14.5 99.79-15.3L99.79-15.3Q99.39-15.8 99.14-16.13 98.89-16.45 98.89-16.95L98.89-16.95Q98.89-17.85 99.72-18.6 100.54-19.35 101.67-19.83 102.79-20.3 103.69-20.3L103.69-20.3Q105.04-20.3 105.44-19.05 105.84-17.8 105.84-16.2L105.84-16.2Q105.84-13.5 105.07-10.58 104.29-7.65 102.84-5.08 101.39-2.5 99.29-0.9 97.19 0.7 94.54 0.7L94.54 0.7Q91.84 0.7 90.84-0.85 89.84-2.4 89.99-4.6L89.99-4.6Q88.49-2.3 86.47-0.8 84.44 0.7 82.29 0.7ZM113.44-24.85L113.44-24.85Q112.04-24.9 111.19-25.7 110.34-26.5 110.34-27.95L110.34-27.95Q110.39-29.5 111.39-30.48 112.39-31.45 113.94-31.4L113.94-31.4Q115.39-31.35 116.21-30.55 117.04-29.75 116.99-28.3L116.99-28.3Q116.94-26.8 115.99-25.83 115.04-24.85 113.44-24.85ZM113.49 0.5L113.49 0.5Q111.99 0.5 111.14-0.33 110.29-1.15 110.29-3.15L110.29-3.15Q110.29-4.3 110.51-5.4 110.74-6.5 111.04-7.55L111.04-7.55Q111.39-8.65 111.61-9.8 111.84-10.95 111.84-12.25L111.84-12.25Q111.84-13.15 111.59-13.98 111.34-14.8 110.49-15.2L110.49-15.2Q109.84-15.55 109.36-15.93 108.89-16.3 108.89-16.9L108.89-16.9Q108.89-17.6 109.54-18.4 110.19-19.2 111.26-19.78 112.34-20.35 113.49-20.35L113.49-20.35Q114.74-20.35 115.31-19.7 115.89-19.05 116.09-18.05 116.29-17.05 116.29-16L116.29-16Q116.29-14.4 116.04-12.88 115.79-11.35 115.54-10.05L115.54-10.05Q115.34-9.1 115.24-8.3 115.14-7.5 115.14-6.8L115.14-6.8Q115.14-5.55 115.74-4.93 116.34-4.3 117.44-3.75L117.44-3.75Q117.89-3.5 117.89-3L117.89-3Q117.89-2.6 117.49-1.75 117.09-0.9 116.11-0.2 115.14 0.5 113.49 0.5ZM128.24 0.65L128.24 0.65Q126.39 0.65 124.79 0.1 123.19-0.45 122.19-1.45 121.19-2.45 121.19-3.85L121.19-3.85Q121.19-4.6 121.56-5.28 121.94-5.95 122.79-5.95L122.79-5.95Q123.24-5.95 123.74-5.7L123.74-5.7Q124.64-5.2 126.04-4.78 127.44-4.35 128.99-4.35L128.99-4.35Q130.74-4.35 132.09-4.85 133.44-5.35 133.44-6.25L133.44-6.25Q133.44-6.95 132.41-7.25 131.39-7.55 128.99-7.9L128.99-7.9Q127.34-8.2 125.79-8.6 124.24-9 123.24-9.98 122.24-10.95 122.24-12.85L122.24-12.85Q122.24-14.7 123.26-16.43 124.29-18.15 126.34-19.3 128.39-20.45 131.34-20.45L131.34-20.45Q132.89-20.45 134.34-20.1 135.79-19.75 136.74-19.05 137.69-18.35 137.69-17.3L137.69-17.3Q137.69-16.4 137.06-15.65 136.44-14.9 135.61-14.43 134.79-13.95 134.24-13.95L134.24-13.95Q133.84-13.95 133.29-14.5L133.29-14.5Q132.44-15.2 131.41-15.48 130.39-15.75 129.39-15.75L129.39-15.75Q127.89-15.75 126.96-15.3 126.04-14.85 126.04-14.15L126.04-14.15Q126.04-13.5 126.81-13.1 127.59-12.7 128.74-12.53 129.89-12.35 130.94-12.2L130.94-12.2Q133.84-11.8 135.54-10.83 137.24-9.85 137.24-7.4L137.24-7.4Q137.24-5.5 136.16-3.63 135.09-1.75 133.06-0.55 131.04 0.65 128.24 0.65ZM147.78 0.65L147.78 0.65Q144.78 0.65 143.06-1.35 141.33-3.35 141.33-6.8L141.33-6.8Q141.33-9.35 142.16-11.8 142.98-14.25 144.48-16.2 145.98-18.15 147.98-19.3 149.98-20.45 152.33-20.45L152.33-20.45Q153.83-20.45 155.01-20 156.18-19.55 157.08-18.85L157.08-18.85Q157.03-22.25 156.73-24.95 156.43-27.65 155.28-29.95L155.28-29.95Q155.08-30.35 154.96-30.68 154.83-31 154.83-31.3L154.83-31.3Q154.83-32 155.41-32.6 155.98-33.2 156.83-33.6 157.68-34 158.43-34L158.43-34Q159.78-34 160.46-32.83 161.13-31.65 161.33-29.63 161.53-27.6 161.53-25L161.53-25Q161.53-21.2 161.18-18.15 160.83-15.1 160.53-12.8L160.53-12.8Q160.33-11.3 160.18-10.2 160.03-9.1 160.03-8.4L160.03-8.4Q160.03-4.85 163.08-4.2L163.08-4.2Q163.88-4.05 163.88-3.15L163.88-3.15Q163.88-2.6 163.56-1.75 163.23-0.9 162.38-0.23 161.53 0.45 159.93 0.45L159.93 0.45Q157.78 0.45 157.03-1 156.28-2.45 156.28-5.4L156.28-5.4Q154.88-2.85 152.73-1.1 150.58 0.65 147.78 0.65ZM149.33-4.7L149.33-4.7Q150.73-4.7 152.13-5.6 153.53-6.5 154.63-8.05L154.63-8.05Q155.28-9 155.81-10.23 156.33-11.45 156.78-12.7L156.78-12.7Q154.23-15 151.13-15L151.13-15Q148.43-15 146.83-13.38 145.23-11.75 145.23-9.35L145.23-9.35Q145.23-7.3 146.43-6 147.63-4.7 149.33-4.7ZM175.03 0.65L175.03 0.65Q171.58 0.65 169.51-1.23 167.43-3.1 167.43-6.75L167.43-6.75Q167.43-8.45 167.91-10.05 168.38-11.65 169.18-13.05L169.18-13.05Q168.38-12.55 167.98-12.55L167.98-12.55Q167.38-12.55 167.16-13.23 166.93-13.9 166.93-14.55L166.93-14.55Q166.93-15.7 167.41-16.38 167.88-17.05 168.33-17.4L168.33-17.4Q169.38-18.3 171.63-19.38 173.88-20.45 177.03-20.45L177.03-20.45Q181.33-20.45 183.71-18.05 186.08-15.65 186.08-11.35L186.08-11.35Q186.08-8 184.68-5.28 183.28-2.55 180.81-0.95 178.33 0.65 175.03 0.65ZM176.58-4.45L176.58-4.45Q179.08-4.45 180.81-6.03 182.53-7.6 182.53-10.2L182.53-10.2Q182.53-12.9 180.78-14.05 179.03-15.2 176.73-15.2L176.73-15.2Q175.68-15.2 174.83-15 173.98-14.8 173.23-14.5L173.23-14.5Q172.53-13.5 171.98-12.25 171.43-11 171.43-9.5L171.43-9.5Q171.43-7 172.93-5.73 174.43-4.45 176.58-4.45ZM192.73 0.55L192.73 0.55Q190.93 0.55 191.13-0.65L191.13-0.65Q191.68-2.8 192.05-5.03 192.43-7.25 192.43-9.3L192.43-9.3Q192.43-11.95 192.1-13.18 191.78-14.4 191.23-14.88 190.68-15.35 189.88-15.6L189.88-15.6Q189.53-15.75 189.25-16 188.98-16.25 188.98-16.7L188.98-16.7Q188.98-17.4 189.53-18.25 190.08-19.1 191.1-19.73 192.13-20.35 193.43-20.35L193.43-20.35Q195.13-20.35 195.78-19.18 196.43-18 196.43-16.1L196.43-16.1Q196.43-14.85 196.18-13.3 195.93-11.75 195.68-10.5L195.68-10.5 195.78-10.45Q196.58-13.1 197.75-15.35 198.93-17.6 200.6-19 202.28-20.4 204.48-20.4L204.48-20.4Q206.73-20.4 208.03-18.88 209.33-17.35 209.33-14.4L209.33-14.4 209.33-13.3Q210.78-16.35 212.85-18.4 214.93-20.45 217.88-20.45L217.88-20.45Q220.28-20.45 221.63-18.85 222.98-17.25 222.98-14.85L222.98-14.85Q222.98-13.9 222.78-13.03 222.58-12.15 222.33-11.3L222.33-11.3Q222.13-10.5 221.93-9.65 221.73-8.8 221.73-7.95L221.73-7.95Q221.73-4.95 224.28-4.05L224.28-4.05Q224.63-3.9 224.83-3.73 225.03-3.55 225.03-3.1L225.03-3.1Q225.03-2.65 224.75-1.8 224.48-0.95 223.68-0.23 222.88 0.5 221.38 0.5L221.38 0.5Q219.43 0.5 218.38-0.93 217.33-2.35 217.33-4.55L217.33-4.55Q217.33-5.65 217.53-6.85 217.73-8.05 218.03-9.15L218.03-9.15Q218.28-10.15 218.45-11.05 218.63-11.95 218.63-12.6L218.63-12.6Q218.63-13.8 218.05-14.35 217.48-14.9 216.53-14.9L216.53-14.9Q214.93-14.9 213.65-13.9 212.38-12.9 211.4-11.3 210.43-9.7 209.73-7.8L209.73-7.8Q209.78-7.35 209.8-6.63 209.83-5.9 209.83-5.35L209.83-5.35Q209.83-4.4 209.7-3.35 209.58-2.3 209.23-1.6L209.23-1.6Q208.83-0.65 208.05-0.05 207.28 0.55 205.98 0.55L205.98 0.55Q205.43 0.55 204.93 0.33 204.43 0.1 204.43-0.4L204.43-0.4Q204.43-0.6 204.73-2.18 205.03-3.75 205.33-6.05 205.63-8.35 205.63-10.55L205.63-10.55Q205.63-12.95 205.13-13.88 204.63-14.8 203.63-14.8L203.63-14.8Q202.38-14.8 201.25-13.75 200.13-12.7 199.2-11.05 198.28-9.4 197.6-7.6 196.93-5.8 196.53-4.25L196.53-4.25 196.53-3.7Q196.53-1.85 195.5-0.65 194.48 0.55 192.73 0.55ZM248.92 0.65L248.92 0.65Q245.92 0.65 244.1-1.23 242.27-3.1 242.27-6.6L242.27-6.6Q242.27-9.1 243.25-11.58 244.22-14.05 246.07-16.05 247.92-18.05 250.52-19.25 253.12-20.45 256.37-20.45L256.37-20.45Q259.37-20.45 261.5-19.43 263.62-18.4 263.62-16.65L263.62-16.65Q263.62-16.2 263.52-15.48 263.42-14.75 263.27-14.3L263.27-14.3Q263.12-13.9 262.85-13.58 262.57-13.25 262.12-13.25L262.12-13.25Q261.92-13.25 261.37-13.4L261.37-13.4Q261.17-12.35 261.07-11.35 260.97-10.35 260.97-9.35L260.97-9.35Q260.97-7.45 261.55-5.98 262.12-4.5 263.82-4.15L263.82-4.15Q264.27-4.05 264.55-3.85 264.82-3.65 264.82-3L264.82-3Q264.82-2.45 264.55-1.6 264.27-0.75 263.5-0.08 262.72 0.6 261.27 0.6L261.27 0.6Q259.32 0.6 258.27-0.83 257.22-2.25 257.22-4.9L257.22-4.9Q255.87-2.45 253.8-0.9 251.72 0.65 248.92 0.65ZM250.52-4.55L250.52-4.55Q252.52-4.55 254.05-5.8 255.57-7.05 256.42-8.95L256.42-8.95Q256.97-10.15 257.27-11.58 257.57-13 257.67-14.4L257.67-14.4Q256.82-14.8 255.72-15.05 254.62-15.3 253.42-15.3L253.42-15.3Q250.37-15.3 248.4-13.5 246.42-11.7 246.42-9L246.42-9Q246.42-7 247.52-5.78 248.62-4.55 250.52-4.55ZM270.72 0.55L270.72 0.55Q268.92 0.55 269.12-0.65L269.12-0.65Q269.67-2.8 270.05-5.03 270.42-7.25 270.42-9.3L270.42-9.3Q270.42-11.95 270.1-13.18 269.77-14.4 269.22-14.88 268.67-15.35 267.87-15.6L267.87-15.6Q267.52-15.75 267.25-16 266.97-16.25 266.97-16.7L266.97-16.7Q266.97-17.4 267.52-18.25 268.07-19.1 269.1-19.73 270.12-20.35 271.42-20.35L271.42-20.35Q273.12-20.35 273.77-19.18 274.42-18 274.42-16.1L274.42-16.1Q274.42-14.85 274.17-13.3 273.92-11.75 273.67-10.5L273.67-10.5 273.82-10.45Q274.82-13.1 276.25-15.38 277.67-17.65 279.57-19.05 281.47-20.45 283.97-20.45L283.97-20.45Q286.62-20.45 288.02-18.85 289.42-17.25 289.42-14.85L289.42-14.85Q289.42-13.85 289.2-12.95 288.97-12.05 288.72-11.2L288.72-11.2Q288.47-10.4 288.3-9.55 288.12-8.7 288.12-7.85L288.12-7.85Q288.12-5 290.82-4L290.82-4Q291.52-3.7 291.52-3.1L291.52-3.1Q291.52-2.65 291.22-1.8 290.92-0.95 290.12-0.23 289.32 0.5 287.77 0.5L287.77 0.5Q285.77 0.5 284.67-0.93 283.57-2.35 283.57-4.55L283.57-4.55Q283.57-5.8 283.85-7.08 284.12-8.35 284.42-9.45L284.42-9.45Q284.62-10.3 284.8-11.13 284.97-11.95 284.97-12.6L284.97-12.6Q284.97-14.9 282.57-14.9L282.57-14.9Q280.52-14.9 278.97-13.38 277.42-11.85 276.32-9.55 275.22-7.25 274.52-4.9L274.52-4.9 274.52-3.7Q274.52-1.85 273.5-0.65 272.47 0.55 270.72 0.55ZM300.97 0.65L300.97 0.65Q297.97 0.65 296.24-1.35 294.52-3.35 294.52-6.8L294.52-6.8Q294.52-9.35 295.34-11.8 296.17-14.25 297.67-16.2 299.17-18.15 301.17-19.3 303.17-20.45 305.52-20.45L305.52-20.45Q307.02-20.45 308.19-20 309.37-19.55 310.27-18.85L310.27-18.85Q310.22-22.25 309.92-24.95 309.62-27.65 308.47-29.95L308.47-29.95Q308.27-30.35 308.14-30.68 308.02-31 308.02-31.3L308.02-31.3Q308.02-32 308.59-32.6 309.17-33.2 310.02-33.6 310.87-34 311.62-34L311.62-34Q312.97-34 313.64-32.83 314.32-31.65 314.52-29.63 314.72-27.6 314.72-25L314.72-25Q314.72-21.2 314.37-18.15 314.02-15.1 313.72-12.8L313.72-12.8Q313.52-11.3 313.37-10.2 313.22-9.1 313.22-8.4L313.22-8.4Q313.22-4.85 316.27-4.2L316.27-4.2Q317.07-4.05 317.07-3.15L317.07-3.15Q317.07-2.6 316.74-1.75 316.42-0.9 315.57-0.23 314.72 0.45 313.12 0.45L313.12 0.45Q310.97 0.45 310.22-1 309.47-2.45 309.47-5.4L309.47-5.4Q308.07-2.85 305.92-1.1 303.77 0.65 300.97 0.65ZM302.52-4.7L302.52-4.7Q303.92-4.7 305.32-5.6 306.72-6.5 307.82-8.05L307.82-8.05Q308.47-9 308.99-10.23 309.52-11.45 309.97-12.7L309.97-12.7Q307.42-15 304.32-15L304.32-15Q301.62-15 300.02-13.38 298.42-11.75 298.42-9.35L298.42-9.35Q298.42-7.3 299.62-6 300.82-4.7 302.52-4.7ZM341.41 0.65L341.41 0.65Q339.56 0.65 337.96 0.1 336.36-0.45 335.36-1.45 334.36-2.45 334.36-3.85L334.36-3.85Q334.36-4.6 334.74-5.28 335.11-5.95 335.96-5.95L335.96-5.95Q336.41-5.95 336.91-5.7L336.91-5.7Q337.81-5.2 339.21-4.78 340.61-4.35 342.16-4.35L342.16-4.35Q343.91-4.35 345.26-4.85 346.61-5.35 346.61-6.25L346.61-6.25Q346.61-6.95 345.59-7.25 344.56-7.55 342.16-7.9L342.16-7.9Q340.51-8.2 338.96-8.6 337.41-9 336.41-9.98 335.41-10.95 335.41-12.85L335.41-12.85Q335.41-14.7 336.44-16.43 337.46-18.15 339.51-19.3 341.56-20.45 344.51-20.45L344.51-20.45Q346.06-20.45 347.51-20.1 348.96-19.75 349.91-19.05 350.86-18.35 350.86-17.3L350.86-17.3Q350.86-16.4 350.24-15.65 349.61-14.9 348.79-14.43 347.96-13.95 347.41-13.95L347.41-13.95Q347.01-13.95 346.46-14.5L346.46-14.5Q345.61-15.2 344.59-15.48 343.56-15.75 342.56-15.75L342.56-15.75Q341.06-15.75 340.14-15.3 339.21-14.85 339.21-14.15L339.21-14.15Q339.21-13.5 339.99-13.1 340.76-12.7 341.91-12.53 343.06-12.35 344.11-12.2L344.11-12.2Q347.01-11.8 348.71-10.83 350.41-9.85 350.41-7.4L350.41-7.4Q350.41-5.5 349.34-3.63 348.26-1.75 346.24-0.55 344.21 0.65 341.41 0.65ZM362.61 0.65L362.61 0.65Q359.16 0.65 357.09-1.23 355.01-3.1 355.01-6.75L355.01-6.75Q355.01-8.45 355.49-10.05 355.96-11.65 356.76-13.05L356.76-13.05Q355.96-12.55 355.56-12.55L355.56-12.55Q354.96-12.55 354.74-13.23 354.51-13.9 354.51-14.55L354.51-14.55Q354.51-15.7 354.99-16.38 355.46-17.05 355.91-17.4L355.91-17.4Q356.96-18.3 359.21-19.38 361.46-20.45 364.61-20.45L364.61-20.45Q368.91-20.45 371.29-18.05 373.66-15.65 373.66-11.35L373.66-11.35Q373.66-8 372.26-5.28 370.86-2.55 368.39-0.95 365.91 0.65 362.61 0.65ZM364.16-4.45L364.16-4.45Q366.66-4.45 368.39-6.03 370.11-7.6 370.11-10.2L370.11-10.2Q370.11-12.9 368.36-14.05 366.61-15.2 364.31-15.2L364.31-15.2Q363.26-15.2 362.41-15 361.56-14.8 360.81-14.5L360.81-14.5Q360.11-13.5 359.56-12.25 359.01-11 359.01-9.5L359.01-9.5Q359.01-7 360.51-5.73 362.01-4.45 364.16-4.45ZM383.76 0.65L383.76 0.65Q381.26 0.65 379.88-0.8 378.51-2.25 378.51-5L378.51-5Q378.51-6.95 379.06-9L379.06-9Q379.31-9.85 379.46-10.7 379.61-11.55 379.61-12.4L379.61-12.4Q379.61-14.6 378.26-15.25L378.26-15.25Q376.96-15.95 376.96-16.75L376.96-16.75Q376.96-17.55 377.63-18.35 378.31-19.15 379.31-19.68 380.31-20.2 381.31-20.2L381.31-20.2Q384.16-20.2 384.16-15.55L384.16-15.55Q384.16-14.05 383.93-12.78 383.71-11.5 383.41-10.35L383.41-10.35Q383.21-9.55 383.08-8.75 382.96-7.95 382.96-7.35L382.96-7.35Q382.96-4.85 385.41-4.85L385.41-4.85Q387.71-4.85 389.71-7.3 391.71-9.75 393.01-14.15L393.01-14.15 392.96-15.1Q392.86-17.6 393.83-18.9 394.81-20.2 396.71-20.2L396.71-20.2Q398.36-20.2 398.36-19.15L398.36-19.15Q398.36-18.8 398.23-18.25 398.11-17.7 397.86-16.95L397.86-16.95Q397.36-15.1 397.01-13.03 396.66-10.95 396.66-9.2L396.66-9.2Q396.66-7.25 397.26-5.98 397.86-4.7 399.51-4.25L399.51-4.25Q399.96-4.2 400.23-3.98 400.51-3.75 400.51-3.05L400.51-3.05Q400.51-1.85 399.51-0.7 398.51 0.45 396.61 0.45L396.61 0.45Q392.96 0.45 392.96-4.7L392.96-4.7Q392.96-5.6 393.11-7.4L393.11-7.4 393.01-7.45Q389.86 0.65 383.76 0.65ZM406.16 0.55L406.16 0.55Q404.36 0.55 404.56-0.65L404.56-0.65Q405.11-2.8 405.48-5.03 405.86-7.25 405.86-9.3L405.86-9.3Q405.86-11.95 405.53-13.18 405.21-14.4 404.66-14.88 404.11-15.35 403.31-15.6L403.31-15.6Q402.96-15.75 402.68-16 402.41-16.25 402.41-16.7L402.41-16.7Q402.41-17.4 402.96-18.25 403.51-19.1 404.53-19.73 405.56-20.35 406.86-20.35L406.86-20.35Q408.56-20.35 409.21-19.18 409.86-18 409.86-16.1L409.86-16.1Q409.86-14.85 409.61-13.3 409.36-11.75 409.11-10.5L409.11-10.5 409.26-10.45Q410.26-13.1 411.68-15.38 413.11-17.65 415.01-19.05 416.91-20.45 419.41-20.45L419.41-20.45Q422.06-20.45 423.46-18.85 424.86-17.25 424.86-14.85L424.86-14.85Q424.86-13.85 424.63-12.95 424.41-12.05 424.16-11.2L424.16-11.2Q423.91-10.4 423.73-9.55 423.56-8.7 423.56-7.85L423.56-7.85Q423.56-5 426.26-4L426.26-4Q426.96-3.7 426.96-3.1L426.96-3.1Q426.96-2.65 426.66-1.8 426.36-0.95 425.56-0.23 424.76 0.5 423.21 0.5L423.21 0.5Q421.21 0.5 420.11-0.93 419.01-2.35 419.01-4.55L419.01-4.55Q419.01-5.8 419.28-7.08 419.56-8.35 419.86-9.45L419.86-9.45Q420.06-10.3 420.23-11.13 420.41-11.95 420.41-12.6L420.41-12.6Q420.41-14.9 418.01-14.9L418.01-14.9Q415.96-14.9 414.41-13.38 412.86-11.85 411.76-9.55 410.66-7.25 409.96-4.9L409.96-4.9 409.96-3.7Q409.96-1.85 408.93-0.65 407.91 0.55 406.16 0.55ZM436.4 0.65L436.4 0.65Q433.4 0.65 431.68-1.35 429.95-3.35 429.95-6.8L429.95-6.8Q429.95-9.35 430.78-11.8 431.6-14.25 433.1-16.2 434.6-18.15 436.6-19.3 438.6-20.45 440.95-20.45L440.95-20.45Q442.45-20.45 443.63-20 444.8-19.55 445.7-18.85L445.7-18.85Q445.65-22.25 445.35-24.95 445.05-27.65 443.9-29.95L443.9-29.95Q443.7-30.35 443.58-30.68 443.45-31 443.45-31.3L443.45-31.3Q443.45-32 444.03-32.6 444.6-33.2 445.45-33.6 446.3-34 447.05-34L447.05-34Q448.4-34 449.08-32.83 449.75-31.65 449.95-29.63 450.15-27.6 450.15-25L450.15-25Q450.15-21.2 449.8-18.15 449.45-15.1 449.15-12.8L449.15-12.8Q448.95-11.3 448.8-10.2 448.65-9.1 448.65-8.4L448.65-8.4Q448.65-4.85 451.7-4.2L451.7-4.2Q452.5-4.05 452.5-3.15L452.5-3.15Q452.5-2.6 452.18-1.75 451.85-0.9 451-0.23 450.15 0.45 448.55 0.45L448.55 0.45Q446.4 0.45 445.65-1 444.9-2.45 444.9-5.4L444.9-5.4Q443.5-2.85 441.35-1.1 439.2 0.65 436.4 0.65ZM437.95-4.7L437.95-4.7Q439.35-4.7 440.75-5.6 442.15-6.5 443.25-8.05L443.25-8.05Q443.9-9 444.43-10.23 444.95-11.45 445.4-12.7L445.4-12.7Q442.85-15 439.75-15L439.75-15Q437.05-15 435.45-13.38 433.85-11.75 433.85-9.35L433.85-9.35Q433.85-7.3 435.05-6 436.25-4.7 437.95-4.7ZM474.95-24.85L474.95-24.85Q473.55-24.9 472.7-25.7 471.85-26.5 471.9-27.95L471.9-27.95Q471.95-29.5 472.95-30.48 473.95-31.45 475.5-31.4L475.5-31.4Q476.95-31.35 477.75-30.55 478.55-29.75 478.5-28.3L478.5-28.3Q478.45-26.8 477.5-25.83 476.55-24.85 474.95-24.85ZM467.5 13.8L467.5 13.8Q465.55 13.8 464.12 12.75 462.7 11.7 462.7 9.8L462.7 9.8Q462.7 8.3 463.47 7.45 464.25 6.6 465.1 6.6L465.1 6.6Q465.7 6.6 466.25 7.1L466.25 7.1Q466.7 7.55 467.27 7.8 467.85 8.05 468.7 8.05L468.7 8.05Q470.55 8.05 471.42 6.83 472.3 5.6 472.65 3.7L472.65 3.7Q473.3 0.5 473.45-2.3 473.6-5.1 473.6-8.25L473.6-8.25Q473.6-11.4 473.37-13.08 473.15-14.75 472-15.3L472-15.3Q471.25-15.7 470.9-16 470.55-16.3 470.55-16.8L470.55-16.8Q470.55-17.55 471.22-18.35 471.9-19.15 473-19.7 474.1-20.25 475.35-20.25L475.35-20.25Q476.8-20.25 477.42-19.5 478.05-18.75 478.22-17.6 478.4-16.45 478.35-15.15L478.35-15.15Q478.3-9.8 477.82-4.98 477.35-0.15 476.05 4.1L476.05 4.1Q474.75 8.65 472.67 11.23 470.6 13.8 467.5 13.8ZM489.75 0.65L489.75 0.65Q487.25 0.65 485.87-0.8 484.5-2.25 484.5-5L484.5-5Q484.5-6.95 485.05-9L485.05-9Q485.3-9.85 485.45-10.7 485.6-11.55 485.6-12.4L485.6-12.4Q485.6-14.6 484.25-15.25L484.25-15.25Q482.95-15.95 482.95-16.75L482.95-16.75Q482.95-17.55 483.62-18.35 484.3-19.15 485.3-19.68 486.3-20.2 487.3-20.2L487.3-20.2Q490.15-20.2 490.15-15.55L490.15-15.55Q490.15-14.05 489.92-12.78 489.7-11.5 489.4-10.35L489.4-10.35Q489.2-9.55 489.07-8.75 488.95-7.95 488.95-7.35L488.95-7.35Q488.95-4.85 491.4-4.85L491.4-4.85Q493.7-4.85 495.7-7.3 497.7-9.75 499-14.15L499-14.15 498.95-15.1Q498.85-17.6 499.82-18.9 500.8-20.2 502.7-20.2L502.7-20.2Q504.35-20.2 504.35-19.15L504.35-19.15Q504.35-18.8 504.22-18.25 504.1-17.7 503.85-16.95L503.85-16.95Q503.35-15.1 503-13.03 502.65-10.95 502.65-9.2L502.65-9.2Q502.65-7.25 503.25-5.98 503.85-4.7 505.5-4.25L505.5-4.25Q505.95-4.2 506.22-3.98 506.5-3.75 506.5-3.05L506.5-3.05Q506.5-1.85 505.5-0.7 504.5 0.45 502.6 0.45L502.6 0.45Q498.95 0.45 498.95-4.7L498.95-4.7Q498.95-5.6 499.1-7.4L499.1-7.4 499-7.45Q495.85 0.65 489.75 0.65ZM515.59 0.65L515.59 0.65Q512.59 0.65 510.87-1.35 509.14-3.35 509.14-6.8L509.14-6.8Q509.14-9.35 509.97-11.8 510.79-14.25 512.29-16.2 513.79-18.15 515.79-19.3 517.79-20.45 520.14-20.45L520.14-20.45Q521.64-20.45 522.82-20 523.99-19.55 524.89-18.85L524.89-18.85Q524.84-22.25 524.54-24.95 524.24-27.65 523.09-29.95L523.09-29.95Q522.89-30.35 522.77-30.68 522.64-31 522.64-31.3L522.64-31.3Q522.64-32 523.22-32.6 523.79-33.2 524.64-33.6 525.49-34 526.24-34L526.24-34Q527.59-34 528.27-32.83 528.94-31.65 529.14-29.63 529.34-27.6 529.34-25L529.34-25Q529.34-21.2 528.99-18.15 528.64-15.1 528.34-12.8L528.34-12.8Q528.14-11.3 527.99-10.2 527.84-9.1 527.84-8.4L527.84-8.4Q527.84-4.85 530.89-4.2L530.89-4.2Q531.69-4.05 531.69-3.15L531.69-3.15Q531.69-2.6 531.37-1.75 531.04-0.9 530.19-0.23 529.34 0.45 527.74 0.45L527.74 0.45Q525.59 0.45 524.84-1 524.09-2.45 524.09-5.4L524.09-5.4Q522.69-2.85 520.54-1.1 518.39 0.65 515.59 0.65ZM517.14-4.7L517.14-4.7Q518.54-4.7 519.94-5.6 521.34-6.5 522.44-8.05L522.44-8.05Q523.09-9 523.62-10.23 524.14-11.45 524.59-12.7L524.59-12.7Q522.04-15 518.94-15L518.94-15Q516.24-15 514.64-13.38 513.04-11.75 513.04-9.35L513.04-9.35Q513.04-7.3 514.24-6 515.44-4.7 517.14-4.7ZM541.44 13.8L541.44 13.8Q537.69 13.8 535.49 12.25 533.29 10.7 533.29 8.25L533.29 8.25Q533.29 6.45 534.42 5.05 535.54 3.65 537.39 3.65L537.39 3.65Q538.44 3.65 538.44 4.25L538.44 4.25Q538.44 4.6 538.32 5.05 538.19 5.5 538.19 5.95L538.19 5.95Q538.19 7.35 539.79 8.03 541.39 8.7 543.64 8.7L543.64 8.7Q545.04 8.7 546.49 8.4 547.94 8.1 548.92 7.48 549.89 6.85 549.89 5.8L549.89 5.8Q549.89 4.65 548.74 4.1 547.59 3.55 545.84 3.28 544.09 3 542.27 2.78 540.44 2.55 539.14 2.05L539.14 2.05Q537.49 1.5 536.69 0.7 535.89-0.1 535.89-1.35L535.89-1.35Q535.89-3.7 538.74-5.1L538.74-5.1Q537.09-5.95 536.27-7.5 535.44-9.05 535.44-10.95L535.44-10.95Q535.44-13.4 536.72-15.55 537.99-17.7 540.52-19.07 543.04-20.45 546.84-20.45L546.84-20.45Q548.54-20.45 550.29-20.13 552.04-19.8 553.22-18.93 554.39-18.05 554.39-16.4L554.39-16.4Q554.39-15.8 554.14-15.08 553.89-14.35 553.19-14.35L553.19-14.35Q552.89-14.35 552.39-14.48 551.89-14.6 551.49-14.7L551.49-14.7Q551.59-14.2 551.67-13.6 551.74-13 551.74-12.35L551.74-12.35Q551.74-9.4 549.74-7.03 547.74-4.65 543.89-4.2L543.89-4.2Q542.49-4.1 541.82-3.88 541.14-3.65 541.14-3.1L541.14-3.1Q541.14-2.6 541.74-2.38 542.34-2.15 543.29-2.05L543.29-2.05Q546.34-1.8 548.69-1.2 551.04-0.6 552.37 0.73 553.69 2.05 553.69 4.5L553.69 4.5Q553.69 7.35 552.02 9.43 550.34 11.5 547.54 12.65 544.74 13.8 541.44 13.8ZM543.34-8.55L543.34-8.55Q545.64-8.55 546.94-9.8 548.24-11.05 548.24-13.05L548.24-13.05Q548.24-13.6 548.14-14.18 548.04-14.75 547.94-15.15L547.94-15.15Q547.14-15.4 546.39-15.48 545.64-15.55 544.94-15.55L544.94-15.55Q542.29-15.55 540.79-14.55 539.29-13.55 539.29-11.8L539.29-11.8Q539.29-10.25 540.39-9.4 541.49-8.55 543.34-8.55ZM559.99 0.55L559.99 0.55Q558.19 0.55 558.39-0.65L558.39-0.65Q558.94-2.8 559.31-5.03 559.69-7.25 559.69-9.3L559.69-9.3Q559.69-11.95 559.36-13.18 559.04-14.4 558.49-14.88 557.94-15.35 557.14-15.6L557.14-15.6Q556.79-15.75 556.51-16 556.24-16.25 556.24-16.7L556.24-16.7Q556.24-17.4 556.79-18.25 557.34-19.1 558.36-19.73 559.39-20.35 560.69-20.35L560.69-20.35Q562.39-20.35 563.04-19.18 563.69-18 563.69-16.1L563.69-16.1Q563.69-14.85 563.44-13.3 563.19-11.75 562.94-10.5L562.94-10.5 563.04-10.45Q563.84-13.1 565.01-15.35 566.19-17.6 567.86-19 569.54-20.4 571.74-20.4L571.74-20.4Q573.99-20.4 575.29-18.88 576.59-17.35 576.59-14.4L576.59-14.4 576.59-13.3Q578.04-16.35 580.11-18.4 582.19-20.45 585.14-20.45L585.14-20.45Q587.54-20.45 588.89-18.85 590.24-17.25 590.24-14.85L590.24-14.85Q590.24-13.9 590.04-13.03 589.84-12.15 589.59-11.3L589.59-11.3Q589.39-10.5 589.19-9.65 588.99-8.8 588.99-7.95L588.99-7.95Q588.99-4.95 591.54-4.05L591.54-4.05Q591.89-3.9 592.09-3.73 592.29-3.55 592.29-3.1L592.29-3.1Q592.29-2.65 592.01-1.8 591.74-0.95 590.94-0.23 590.14 0.5 588.64 0.5L588.64 0.5Q586.69 0.5 585.64-0.93 584.59-2.35 584.59-4.55L584.59-4.55Q584.59-5.65 584.79-6.85 584.99-8.05 585.29-9.15L585.29-9.15Q585.54-10.15 585.71-11.05 585.89-11.95 585.89-12.6L585.89-12.6Q585.89-13.8 585.31-14.35 584.74-14.9 583.79-14.9L583.79-14.9Q582.19-14.9 580.91-13.9 579.64-12.9 578.66-11.3 577.69-9.7 576.99-7.8L576.99-7.8Q577.04-7.35 577.06-6.63 577.09-5.9 577.09-5.35L577.09-5.35Q577.09-4.4 576.96-3.35 576.84-2.3 576.49-1.6L576.49-1.6Q576.09-0.65 575.31-0.05 574.54 0.55 573.24 0.55L573.24 0.55Q572.69 0.55 572.19 0.33 571.69 0.1 571.69-0.4L571.69-0.4Q571.69-0.6 571.99-2.18 572.29-3.75 572.59-6.05 572.89-8.35 572.89-10.55L572.89-10.55Q572.89-12.95 572.39-13.88 571.89-14.8 570.89-14.8L570.89-14.8Q569.64-14.8 568.51-13.75 567.39-12.7 566.46-11.05 565.54-9.4 564.86-7.6 564.19-5.8 563.79-4.25L563.79-4.25 563.79-3.7Q563.79-1.85 562.76-0.65 561.74 0.55 559.99 0.55ZM603.33 0.65L603.33 0.65Q599.53 0.65 597.41-1.53 595.28-3.7 595.28-7.6L595.28-7.6Q595.28-11.15 596.83-14.05 598.38-16.95 601.01-18.68 603.63-20.4 606.78-20.4L606.78-20.4Q609.78-20.4 611.58-18.93 613.38-17.45 613.38-15L613.38-15Q613.38-13.05 612.18-11.4 610.98-9.75 608.98-8.78 606.98-7.8 604.53-7.8L604.53-7.8Q601.53-7.8 599.63-9.15L599.63-9.15Q599.68-6.85 601.21-5.45 602.73-4.05 605.13-4.05L605.13-4.05Q606.58-4.05 608.11-4.58 609.63-5.1 610.73-6L610.73-6Q611.43-6.6 612.03-6.6L612.03-6.6Q612.53-6.6 612.86-6.28 613.18-5.95 613.18-5.45L613.18-5.45Q613.18-4.35 611.28-2.55L611.28-2.55Q607.93 0.65 603.33 0.65ZM604.08-11.1L604.08-11.1Q605.88-11.1 607.08-11.85 608.28-12.6 608.28-13.75L608.28-13.75Q608.28-14.7 607.48-15.23 606.68-15.75 605.28-15.75L605.28-15.75Q603.43-15.75 602.06-14.78 600.68-13.8 600.08-12.05L600.08-12.05Q600.78-11.6 601.88-11.35 602.98-11.1 604.08-11.1ZM620.03 0.55L620.03 0.55Q618.23 0.55 618.43-0.65L618.43-0.65Q618.98-2.8 619.36-5.03 619.73-7.25 619.73-9.3L619.73-9.3Q619.73-11.95 619.41-13.18 619.08-14.4 618.53-14.88 617.98-15.35 617.18-15.6L617.18-15.6Q616.83-15.75 616.56-16 616.28-16.25 616.28-16.7L616.28-16.7Q616.28-17.4 616.83-18.25 617.38-19.1 618.41-19.73 619.43-20.35 620.73-20.35L620.73-20.35Q622.43-20.35 623.08-19.18 623.73-18 623.73-16.1L623.73-16.1Q623.73-14.85 623.48-13.3 623.23-11.75 622.98-10.5L622.98-10.5 623.13-10.45Q624.13-13.1 625.56-15.38 626.98-17.65 628.88-19.05 630.78-20.45 633.28-20.45L633.28-20.45Q635.93-20.45 637.33-18.85 638.73-17.25 638.73-14.85L638.73-14.85Q638.73-13.85 638.51-12.95 638.28-12.05 638.03-11.2L638.03-11.2Q637.78-10.4 637.61-9.55 637.43-8.7 637.43-7.85L637.43-7.85Q637.43-5 640.13-4L640.13-4Q640.83-3.7 640.83-3.1L640.83-3.1Q640.83-2.65 640.53-1.8 640.23-0.95 639.43-0.23 638.63 0.5 637.08 0.5L637.08 0.5Q635.08 0.5 633.98-0.93 632.88-2.35 632.88-4.55L632.88-4.55Q632.88-5.8 633.16-7.08 633.43-8.35 633.73-9.45L633.73-9.45Q633.93-10.3 634.11-11.13 634.28-11.95 634.28-12.6L634.28-12.6Q634.28-14.9 631.88-14.9L631.88-14.9Q629.83-14.9 628.28-13.38 626.73-11.85 625.63-9.55 624.53-7.25 623.83-4.9L623.83-4.9 623.83-3.7Q623.83-1.85 622.81-0.65 621.78 0.55 620.03 0.55ZM651.33 0.65L651.33 0.65Q648.28 0.65 646.95-1.38 645.63-3.4 645.63-6.6L645.63-6.6Q645.63-7.75 645.75-8.85 645.88-9.95 646.03-11.05L646.03-11.05Q646.18-12.15 646.33-13.2 646.48-14.25 646.58-15.2L646.58-15.2Q645.53-14.9 644.48-14.9L644.48-14.9Q643.38-14.9 643.38-15.8L643.38-15.8Q643.38-16.75 644.23-18.13 645.08-19.5 646.35-20.85 647.63-22.2 648.9-23.13 650.18-24.05 651.08-24.05L651.08-24.05Q652.18-24.05 652.18-22.15L652.18-22.15Q652.18-21.65 652.1-21.13 652.03-20.6 651.93-20.05L651.93-20.05Q652.88-20.25 653.85-20.4 654.83-20.55 655.73-20.55L655.73-20.55Q656.88-20.55 657.5-20.15 658.13-19.75 658.13-18.6L658.13-18.6Q658.13-17.4 657.55-16.2 656.98-15 656.28-15L656.28-15Q656.13-15 655.78-15.05 655.43-15.1 654.93-15.2L654.93-15.2Q654.28-15.35 653.28-15.5 652.28-15.65 650.88-15.65L650.88-15.65Q650.53-14.1 650.25-12.48 649.98-10.85 649.98-9.55L649.98-9.55Q649.98-6.65 651.43-5.6 652.88-4.55 655.63-4.55L655.63-4.55Q656.48-4.55 656.83-4.28 657.18-4 657.18-3.3L657.18-3.3Q657.18-1.65 655.48-0.5 653.78 0.65 651.33 0.65Z" opacity="1" transform="matrix(1,0,0,1,0,0)" fill="#ffffff" class="slogan-text-1" data-fill-palette-color="secondary" id="text-1"></path></svg></g></svg></g></svg></g></svg></g><g><svg viewBox="0 0 155.68768515377303 163.50007419928906" height="163.50007419928906" width="155.68768515377303"><g><svg xmlns="http://www.w3.org/2000/svg" xmlns:xlink="http://www.w3.org/1999/xlink" version="1.1" x="0" y="0" viewBox="7.159909302240876 5.062499999999995 85.64009069775912 89.9375" enable-background="new 0 0 100 100" xml:space="preserve" height="163.50007419928906" width="155.68768515377303" class="icon-icon-0" data-fill-palette-color="accent" id="icon-0"><g fill="#2a5276" data-fill-palette-color="accent"><path d="M70.1 55.1l-0.4 0c-0.3 0-0.5 0.1-0.7 0.2-0.1 0-0.2 0-0.3 0.1-0.2 0-0.5 0.2-0.6 0.3-0.1 0.2-0.2 0.4-0.2 0.7 0.1 0.3 0 0.7-0.1 1-0.1 0.2 0 0.5 0.1 0.7 0.1 0.2 0.3 0.4 0.6 0.4 0.1 0 0.3 0 0.4 0 0.6 0 1.2-0.4 1.6-0.9 0.3-0.5 0.4-1.1 0.4-1.5 0-0.2 0-0.5-0.2-0.7C70.5 55.2 70.3 55.1 70.1 55.1z" fill="#ffffff" data-fill-palette-color="accent"></path><path d="M52.3 47.2c0-0.1-0.1-0.2-0.1-0.2l-0.5-0.5c-0.1-0.1-0.3-0.4-0.8-0.4 0 0-0.1 0-0.1 0-0.5 0-0.8 0.3-0.9 0.4l-2.2 2.2c-0.2 0.2-0.6 0.6-0.5 1.2 0.1 0.5 0.5 1.2 1.5 1.2 0.1 0 0.3 0 0.4 0 1-0.2 2-0.4 3-0.8 0.3-0.1 0.6-0.2 0.9-0.5 0.5-0.4 0.6-1 0.4-1.6C53.3 47.6 52.7 47.4 52.3 47.2zM49.8 49.1l0.9-0.9c0.1 0.2 0.3 0.4 0.6 0.5C50.8 48.9 50.3 49 49.8 49.1z" fill="#ffffff" data-fill-palette-color="accent"></path><path d="M92.7 45.9c0-0.1 0-0.1 0-0.2-0.7-9.6-4.6-18.6-11.4-25.6 0.5-0.7 1.1-1.3 1.7-1.9 0.2-0.2 0.3-0.5 0.2-0.7 0-0.3-0.2-0.5-0.4-0.6-4.4-2.4-15.6-8.5-26-11.8-0.3-0.1-0.7 0-1 0.3-0.2 0.3-0.3 0.7-0.1 1l0.8 1.6c-1.5-0.2-3.1-0.3-4.6-0.3-19.7 0-36.5 14-40.2 33.3-1 1.4-1.9 2.9-2.5 4.5C7 50.1 6.6 55.2 7.9 60.4c0.1 0.4 0.5 0.7 0.9 0.7 0 0 0 0 0 0 0.4 0 0.8-0.3 0.9-0.7 0.4-1.9 1-3.7 1.8-5.4 1.4 9.1 5.9 17.4 12.7 23.7 0.4 0.3 0.7 0.7 1.1 1L22 81.2l-2-3.8c-0.2-0.3-0.4-0.5-0.8-0.5-0.3 0-0.6 0.2-0.8 0.5l-7.1 14.6c-0.1 0.3-0.1 0.6 0 0.8 0.1 0.3 0.4 0.4 0.7 0.5L28.4 95c0 0 0.1 0 0.1 0 0.3 0 0.6-0.1 0.7-0.4 0.2-0.3 0.2-0.6 0-0.9l-2.2-4 7.8-3.9c5.3 2.4 11.1 3.7 17.1 3.7 22.6 0 40.9-18.3 40.9-40.9C92.8 47.7 92.8 46.8 92.7 45.9zM90.9 45.7c-1.1 1.7-2.4 3.9-2.4 5.7 0 0 0 0-0.1 0-0.2 0.1-0.4 0.2-0.7 0.4 0-0.2 0-0.4 0-0.6 0-1.9-0.1-3.6-1-5.6-0.2-0.4-0.4-0.9-0.9-1.3-0.2-0.1-0.4-0.4-0.6-0.6-0.7-0.8-1.5-1.7-2.5-1.7-0.3 0-0.6 0-0.9 0-1.5-0.1-2.3-0.1-3.1-1-0.3-0.3-0.7-0.4-1.1-0.2-0.4 0.2-0.6 0.7-0.4 1.1L78 44c0.1 0.4 0.6 1.7 1.8 1.9 0.4 0 0.7 0 0.9-0.1 0.1 0 0.1 0 0.2-0.1 0.3 0 0.5 0 0.7 0.2 0.1 0.1 0.2 0.3 0.1 0.5 0 0.1 0 0.2 0 0.2 0 0-0.2 0.1-0.3 0.2-0.3 0.1-0.7 0.4-1.1 0.8-0.5 0.6-1.1 1.1-1.7 1.6-0.4 0.3-0.7 0.3-0.8 0.3-0.1-0.1-0.3-0.4-0.4-0.5-0.5-0.9-1.1-1.4-1.5-1.7-0.4-0.3-0.7-0.5-1-1.1L73.2 43c-0.2-0.4-0.7-0.6-1.1-0.4-0.4 0.2-0.7 0.6-0.6 1 0.2 0.8 0.3 1.5 0.4 2.2 0.4 2.3 0.7 4.4 2 6.5 1.1 1.7 3.3 1.3 4.2 1.1 0.2 0 0.3-0.1 0.5-0.1 0.1 0 0.3-0.1 0.3-0.1 0.1 0.2 0 0.7-0.2 1.1-0.7 1.4-1.6 2.7-2.6 3.9-0.2 0.2-0.3 0.4-0.5 0.5-1 1-2.1 2.2-2.3 3.8-0.2 0.9 0 1.7 0.1 2.6 0.1 1.1 0.2 2-0.2 2.6-0.2 0.3-0.6 0.6-1.1 0.8-0.7 0.5-1.5 1-1.9 2-0.1 0.4-0.2 0.7-0.2 1.1 0 0.3 0 0.6-0.1 0.7-0.1 0.1-0.2 0.2-0.4 0.3-0.1 0.1-0.2 0.2-0.3 0.3-0.6 0.5-0.9 1.1-1.2 1.7-0.1 0.2-0.2 0.4-0.3 0.5-0.8 1.4-2.4 2.5-4 2.7-0.4 0-0.6 0-0.8 0-0.4-0.1-0.8-0.7-0.9-1.5-0.1-0.3-0.1-0.5-0.1-0.8-0.1-0.7-0.2-1.4-0.5-2.1-0.2-0.5-0.5-0.9-0.8-1.3-0.6-0.8-0.9-1.3-0.8-1.8 0.1-0.2 0.2-0.4 0.4-0.6 0.1-0.1 0.2-0.3 0.3-0.4 0.9-1.1 1.1-2.8 0.7-4.4-0.4-1.4-1.2-2.5-2-3.5-0.1-0.1-0.2-0.3-0.2-0.3 0-0.1 0.2-0.3 0.3-0.5 0.2-0.3 0.5-0.7 0.7-1.2 0.2-0.8 0-2-2.1-3.1-0.8-0.5-1.9-1-3.1-1-0.7 0-1.3 0.3-1.9 0.5-0.1 0-0.2 0.1-0.4 0.1-1.2 0.4-2.6 0.6-3.9 0.5-0.6 0-1-0.2-1.2-0.4-0.1-0.1-0.2-0.4-0.3-0.6-0.1-0.3-0.3-0.7-0.5-1.1-0.3-0.4-0.6-0.6-1-0.9-0.1-0.1-0.2-0.2-0.3-0.2-0.8-0.7-1.2-1.9-1.1-3.4 0.1-0.8 0.2-1.6 0.4-2.4 0.2-0.7 0.3-1.4 0.4-2.1l0-0.3c0-0.4 0.1-0.7 0.2-1 0.1-0.3 0.4-0.6 0.7-0.9l3.5-3.8c0.3-0.3 1.2-1.4 1.1-2.5 0-0.5-0.3-0.9-0.7-1.3-0.2-0.1-0.3-0.2-0.5-0.3-0.1 0-0.1 0-0.2-0.1-0.1-0.1-0.1-0.1-4.4-1.8-0.7-0.3-1.5-0.6-2.2-0.9 8.1-2.8 15.5-4.4 19.4-5.1-1.5 1.1-2.2 2.3-2.4 2.9-0.3 0.7-0.3 1.1-0.2 1.4 0 0.5-0.4 2.2-0.8 3.6-0.1 0.4 0.1 0.9 0.5 1l2.7 1.2c0.1 0.1 0.3 0.1 0.4 0.1 0.2 0 0.4-0.1 0.6-0.2 0.3-0.2 0.4-0.6 0.2-0.9 0-0.1 0.2-0.2 0.4-0.2 0.9-0.1 6-0.3 6.6-0.2 0 0 0 0 0 0 0 0 0 0 0.1 0 0.1 0 0.1 0 0.2 0 0 0 0 0 0 0 0 0 0 0 0 0 0.3 0 0.6-0.2 0.8-0.5 0 0 0 0 0 0 1.7-3.3 4.8-9 9-14.4C86.5 28.1 90.2 36.6 90.9 45.7zM61.2 31.6c0.1-0.6 1.1-2.7 4.6-3.6l3.1 6.6c-2.2 0-5.6 0.2-5.6 0.2-0.7 0.1-1.3 0.4-1.7 1l-1-0.5C61.2 32.7 61.3 31.9 61.2 31.6zM57.5 9.8l2.2 4.2-0.9 0.2c-0.1 0-2.9 0.7-7.1 2.1 0-0.1 0-0.2 0-0.4-0.3-1.5-1.9-1.6-2.9-1.6-0.2 0-0.3 0-0.5 0l-0.8-0.1c-3.1-0.2-6.5-0.5-10.9 0.7-3.9 1.1-7.8 2.8-10.8 4.3 7-6.2 16.1-9.8 26-9.8C53.8 9.4 55.7 9.6 57.5 9.8zM22 23.3c0.5-0.2 1.1-0.6 2-1 3-1.5 8-4.1 13.2-5.6 4.1-1.1 7.4-0.9 10.3-0.6l0.8 0.1c0.2 0 0.4 0 0.5 0 0.2 0 0.4 0 0.6 0-0.1 0.1-0.3 0.2-0.4 0.4-0.5 0.4-1 0.9-1.4 1.2-3.8 1.4-8.2 3.1-12.7 5.3 0.1-0.4 0.3-0.8 0.5-1.1 0.3-0.6 0.6-1.2 0.7-1.7 0 0 0 0 0-0.1 0 0 0 0 0 0 0 0 0 0 0-0.1 0 0 0 0 0-0.1 0 0 0 0 0 0 0 0 0-0.1 0-0.1 0 0 0-0.1 0-0.1 0 0 0-0.1 0-0.1 0 0 0-0.1 0-0.1 0 0 0-0.1 0-0.1 0 0 0-0.1 0-0.1 0 0 0 0-0.1-0.1 0 0 0 0-0.1-0.1 0 0 0 0-0.1-0.1 0 0 0 0-0.1-0.1 0 0 0 0-0.1 0 0 0-0.1 0-0.1 0 0 0-0.1 0-0.1 0 0 0-0.1 0-0.1 0 0 0 0 0 0 0 0 0 0 0-0.1 0 0 0 0 0-0.1 0-2.9-0.1-5.1 0.6-6.5 1.9-0.2 0.2-0.3 0.4-0.3 0.7 0 0.2 0.1 0.5 0.3 0.6 0.4 0.3 0.8 0.5 1.1 0.6l-0.1 0.1c-0.3 0.3-0.7 0.7-1 0.9-0.1-0.1-0.1-0.2-0.2-0.4-0.1-0.1-0.2-0.4-0.2-0.5 0-0.3-0.1-0.6-0.3-0.8-0.2-0.2-0.5-0.3-1-0.2-1.1 0.2-3.6 2-4 2.7-0.4 0.8-0.7 0.9-1 1.1-0.6 0.3-1.1 0.6-1.8 1.7-0.1 0.2-0.4 0.6-0.3 1.2 0.1 0.6 0.6 1 0.9 1.2 0 0 0 0 0 0-0.1 0.2-0.1 0.3-0.1 0.5 0 0.3 0.2 0.5 0.4 0.6-2.6 1.9-4.9 4-7 6.3C15.9 32.2 18.6 27.4 22 23.3zM22.3 28.9c-0.1-0.1-0.2-0.1-0.3-0.2 0 0-0.1-0.1-0.1-0.1 0.4-0.7 0.7-0.9 1-1 0.6-0.3 1.2-0.7 1.8-1.8 0.3-0.3 1.5-1.2 2.3-1.6 0 0.1 0.1 0.2 0.1 0.2 0.1 0.1 0.1 0.3 0.2 0.4-0.1 0.2 0 0.4 0.1 0.6 0.2 0.3 0.4 0.7 0.9 0.8 0.3 0 0.6-0.1 0.9-0.4l0.1 0c0.9-0.3 1.5-0.9 2-1.4l1.1-1.1c0.2-0.2 0.3-0.4 0.3-0.7 0-0.2-0.1-0.5-0.3-0.6-0.3-0.2-0.5-0.4-0.8-0.5C32.2 21.2 33 21 34 21c0 0.1-0.1 0.2-0.1 0.2-0.4 0.9-0.8 1.7-0.8 2.5 0 0.1 0 0.2 0.1 0.3-3.5 1.8-7 3.9-10.3 6.2C22.9 29.7 22.7 29.2 22.3 28.9zM9 56.1c-0.3-3.5 0.3-6.8 1.8-10 6-13.5 25.3-22.3 37.6-26.8 0 0 0 0 0 0 6.2-2.2 10.7-3.3 10.8-3.4l2-0.5c0.3-0.1 0.5-0.2 0.6-0.5 0.1-0.3 0.1-0.5 0-0.8l-3.6-6.7c9 3.1 18.1 7.9 22.6 10.4-4.7 5.3-8.4 11.6-10.6 15.6l-3.6-7.7c-0.2-0.4-0.5-0.6-0.9-0.5l-1.2 0.2c-0.6 0.1-15.4 2.3-29.7 8.4C21.1 39.7 12.4 47.2 9 56.1zM21.1 72.7c-0.2-1.2-0.4-2.7-0.6-4.2-0.2-2.2-0.5-4.5-1-6.2-0.2-0.6-0.4-1.3-0.8-1.9-0.2-0.2-0.3-0.4-0.5-0.6-0.2-0.2-0.4-0.4-0.5-0.6-0.4-0.7 0-1.7 0.3-2.7 0.1-0.2 0.1-0.5 0-0.7-0.1-0.2-0.3-0.4-0.5-0.5-0.1 0-0.4-0.3-0.5-0.7 0-0.1 0-0.2 0-0.3 0 0 0.1 0 0.1 0 0 0 0.1 0 0.1 0 1.1 0 1.2-1.1 1.3-1.5 0-0.1 0-0.1 0-0.2 0.1 0 0.1 0.1 0.2 0.1 0.1 0.1 0.2 0.1 0.3 0.2 0.4 0.3 0.9 0.8 1.7 0.8 0 0 0 0 0 0 0.2 0 0.5-0.1 0.6-0.3 0.1 0.1 0.2 0.3 0.3 0.5 0.1 0.3 0.3 0.6 0.5 0.9 0.4 0.6 1.1 0.9 1.6 1.1 0.3 0.1 0.6 0.3 0.8 0.4 0.4 0.3 0.6 0.9 0.9 1.6 0.2 0.6 0.4 1.2 0.8 1.7 0.9 1.3 2.4 1.8 3.8 2.2 0.9 0.3 1.8 0.6 2.4 1.1 0.5 0.4 0.9 1 0.8 1.5-0.1 0.3-0.3 0.5-0.6 0.8-0.4 0.4-0.8 0.9-0.9 1.5-0.3 0.9 0 1.8 0.3 2.5 0.1 0.2 0.1 0.4 0.2 0.6 0.1 0.4 0.1 0.8 0 1.1 0 0.1-0.1 0.1-0.1 0.1-0.1 0-0.2 0-0.3 0-0.2 0-0.4 0-0.7 0-1.8 0.3-2 2.6-2 3.4-0.1 0.7-0.4 1.3-0.6 1.3-0.3-0.1-0.6 0-0.8 0.2-0.2 0.2-0.4 0.5-0.3 0.8 0 0.7 0 1.5-0.2 2.2C24.9 77.1 22.9 75 21.1 72.7zM25.4 88.5c-0.2 0.1-0.4 0.3-0.5 0.5-0.1 0.2 0 0.5 0.1 0.7l1.9 3.4-13.4-1.3 5.7-11.9 1.5 3c0.2 0.4 0.7 0.6 1.2 0.4l4.9-2.3c1.9 1.5 3.9 2.7 6 3.8L25.4 88.5zM51.9 87.7c-8.8 0-16.8-2.8-23.4-7.6 0.1-0.1 0.2-0.2 0.2-0.4 0.2-0.7 0.3-1.4 0.4-2.2 0.1-0.1 0.3-0.1 0.4-0.2 0.9-0.6 1.2-1.8 1.3-2.6 0.1-1.4 0.4-1.7 0.6-1.8 0.1 0 0.2 0 0.3 0 0.2 0 0.5 0 0.8-0.1 0.5-0.1 0.9-0.4 1.2-0.9 0.5-0.8 0.4-1.8 0.2-2.5-0.1-0.2-0.1-0.4-0.2-0.7-0.2-0.5-0.4-1.1-0.3-1.5 0.1-0.3 0.3-0.5 0.6-0.8 0.4-0.4 0.8-0.9 0.9-1.5 0.4-1.4-0.4-2.7-1.4-3.4-0.9-0.7-1.9-1-3-1.3-1.2-0.4-2.3-0.7-2.9-1.6-0.3-0.4-0.4-0.8-0.6-1.3-0.3-0.8-0.6-1.7-1.4-2.3-0.4-0.3-0.8-0.5-1.2-0.7-0.4-0.2-0.7-0.3-0.9-0.6-0.1-0.1-0.2-0.3-0.3-0.5-0.1-0.3-0.3-0.6-0.5-0.9-0.4-0.5-1.1-0.8-1.7-0.7-0.2 0-0.4 0.1-0.6 0.2-0.1-0.1-0.2-0.2-0.3-0.3-0.1-0.1-0.2-0.2-0.3-0.3-0.7-0.5-1.7-0.7-2.5-0.1 0 0 0 0 0 0 0 0 0 0 0 0 0 0-0.1 0.1-0.1 0.1-0.4 0.5-0.8 0.9-1.1 1.2 0 0 0 0 0 0-0.7 0.7-0.9 1.6-0.7 2.5 0.1 0.6 0.5 1.1 0.8 1.4-0.4 1.1-0.6 2.3 0 3.4 0.2 0.4 0.5 0.7 0.7 1 0.1 0.1 0.3 0.3 0.4 0.5 0.3 0.4 0.4 0.9 0.6 1.4 0.5 1.5 0.7 3.8 0.9 5.9 0 0.3 0.1 0.6 0.1 0.9-3.2-5-5.2-10.9-5.9-17.2 4.2-6.5 11.8-12.3 22.6-16.9 1.5-0.7 3.1-1.3 4.6-1.8 0.6 0.2 1.7 0.7 4.1 1.6 1.8 0.7 3.5 1.4 3.9 1.5 0.2 0.1 0.3 0.2 0.5 0.3 0.1 0 0.1 0 0.1 0.1 0 0.1-0.1 0.6-0.6 1.1l-3.5 3.8c-0.3 0.4-0.7 0.8-1 1.3-0.2 0.5-0.3 1.1-0.3 1.5l0 0.2c-0.1 0.6-0.2 1.3-0.4 2-0.2 0.8-0.4 1.7-0.4 2.6-0.2 2.1 0.5 3.9 1.8 5 0.1 0.1 0.3 0.2 0.4 0.3 0.2 0.2 0.4 0.3 0.5 0.4 0.1 0.1 0.2 0.4 0.3 0.6 0.1 0.4 0.3 0.8 0.6 1.2 0.7 0.8 1.7 1 2.4 1 1.6 0.1 3.2-0.1 4.6-0.6 0.1 0 0.3-0.1 0.4-0.1 0.5-0.2 0.9-0.3 1.3-0.4 0.6 0 1.3 0.3 2.2 0.8 0.8 0.4 1.3 0.9 1.2 1.2 0 0.1-0.2 0.4-0.3 0.6-0.3 0.4-0.8 1-0.6 1.9 0.1 0.5 0.4 0.9 0.6 1.1 0.7 0.9 1.4 1.9 1.7 2.9 0.3 1 0.2 2.1-0.4 2.8-0.1 0.1-0.2 0.2-0.3 0.3-0.3 0.3-0.6 0.6-0.7 1.1-0.5 1.4 0.3 2.5 1 3.5 0.3 0.4 0.5 0.7 0.7 1.1 0.2 0.4 0.3 1 0.4 1.6 0 0.3 0.1 0.6 0.2 0.9 0.3 1.4 1.1 2.5 2.1 2.8 0.3 0.1 0.7 0.1 0.9 0.1 0.2 0 0.5 0 0.7-0.1 2.2-0.3 4.2-1.6 5.3-3.6 0.1-0.2 0.2-0.4 0.3-0.6 0.2-0.5 0.5-0.9 0.8-1.2 0.1-0.1 0.2-0.1 0.2-0.2 0.2-0.2 0.5-0.4 0.8-0.7 0.4-0.5 0.4-1.1 0.4-1.6 0-0.2 0-0.5 0.1-0.6 0.1-0.4 0.6-0.7 1.1-1 0.5-0.3 1.1-0.7 1.5-1.3 0.9-1.2 0.7-2.7 0.6-3.9-0.1-0.7-0.2-1.4-0.1-2 0.2-1.1 1-2 1.9-2.9 0.2-0.2 0.3-0.4 0.5-0.6 1.1-1.3 2.1-2.7 2.9-4.3 0.3-0.7 0.6-1.8 0.2-2.7-0.2-0.5-0.6-0.8-1.2-0.9-0.5-0.1-1 0-1.3 0.1-0.1 0-0.2 0.1-0.3 0.1-1.4 0.2-2.1 0.1-2.4-0.3-0.7-1.1-1.1-2.3-1.4-3.5 0.2 0.2 0.4 0.4 0.6 0.5 0.4 0.3 0.7 0.5 1 1.1 0.2 0.4 0.5 0.9 1.1 1.3 0.8 0.4 1.7 0.3 2.7-0.4 0.8-0.5 1.4-1.2 2-1.8 0.2-0.2 0.4-0.3 0.6-0.4 0.5-0.2 1.2-0.6 1.3-1.7 0.1-0.8-0.1-1.5-0.6-2-0.5-0.5-1.3-0.8-2.2-0.6-0.1 0-0.3 0.1-0.4 0.1-0.1 0-0.2 0.1-0.2 0.1 0 0-0.1-0.1-0.3-0.7l0-0.1c0.7 0.2 1.4 0.2 2.1 0.2 0.3 0 0.5 0 0.8 0 0.3 0 1 0.8 1.3 1.2 0.3 0.3 0.5 0.6 0.8 0.8 0.1 0.1 0.3 0.4 0.4 0.6 0.7 1.7 0.8 3.2 0.8 4.9 0 0.8 0 1.6 0.1 2.5 0 0.4 0.4 0.8 0.8 0.8 1 0.1 1.8-0.6 2.1-1.4 0.1 0 0.1-0.1 0.2-0.1 0.4-0.2 1.2-0.5 1.1-1.4 0-0.6 0.2-1.5 0.8-2.6C90.7 70.4 73.3 87.7 51.9 87.7z" fill="#ffffff" data-fill-palette-color="accent"></path></g></svg></g></svg></g></svg></g><defs></defs></svg><rect width="395.52" height="115.18216110942285" fill="none" stroke="none" visibility="hidden"></rect></g></svg></g></svg>